<?xml version="1.0" encoding="utf-8"?>
<!-- Generator: Adobe Illustrator 21.1.0, SVG Export Plug-In . SVG Version: 6.00 Build 0)  -->
<svg version="1.1" id="Слой_1" xmlns="http://www.w3.org/2000/svg" xmlns:xlink="http://www.w3.org/1999/xlink" x="0px" y="0px"
	 width="11.3px" height="19px" viewBox="0 0 11.3 19" style="enable-background:new 0 0 11.3 19;" xml:space="preserve">
<style type="text/css">
	.st0{fill:#FB9B36;}
</style>
<path class="st0" d="M5.4,11.3l-5,4.9c-0.6,0.6-0.6,1.8,0,2.4C0.8,18.9,1.2,19,1.7,19s0.9-0.2,1.2-0.5l7.8-7.8
	c0.1-0.1,0.2-0.2,0.2-0.3c0.1-0.1,0.1-0.2,0.2-0.2v-0.1c0-0.1,0.1-0.2,0.1-0.2c0.1-0.2,0.1-0.5,0-0.6c0-0.1,0-0.2-0.1-0.2V8.9
	c0-0.1-0.1-0.2-0.1-0.2V8.6l-0.2-0.2L2.9,0.5C2.6,0.2,2.2,0,1.7,0S0.8,0.2,0.5,0.5S0,1.2,0,1.7s0.2,0.9,0.5,1.2l5,4.9L7,9.5
	C6.9,9.4,5.4,11.3,5.4,11.3z"/>
</svg>
