<?xml version="1.0" encoding="utf-8"?>
<!-- Generator: Adobe Illustrator 21.1.0, SVG Export Plug-In . SVG Version: 6.00 Build 0)  -->
<svg version="1.1" id="Слой_1" xmlns="http://www.w3.org/2000/svg" xmlns:xlink="http://www.w3.org/1999/xlink" x="0px" y="0px"
	 viewBox="0 0 835.2 573.3" style="enable-background:new 0 0 835.2 573.3;" xml:space="preserve">
<style type="text/css">
	.st0{fill:#FFFFFF;stroke:#1A181B;stroke-width:10;}
	.st1{fill:#1A181B;}
</style>
<g>
	<path class="st0" d="M6,95.2h823.2c2.2,0,4,1.8,4,4v468.1c0,2.2-1.8,4-4,4H6c-2.2,0-4-1.8-4-4V99.2C2,97,3.8,95.2,6,95.2z"/>
	<path class="st0" d="M7.1,95.2h820.8c2.6,0,4.5,2.4,3.9,4.9l-55.6,229.1c-0.4,1.8-2,3.1-3.9,3.1H50.9c-1.9,0-3.6-1.4-3.9-3.2
		L3.2,99.9C2.7,97.5,4.6,95.2,7.1,95.2z"/>
	<path class="st0" d="M287.3,2H548c2.2,0,4,1.8,4,4v88.9H283.3V6C283.3,3.8,285.1,2,287.3,2z"/>
	<path class="st1" d="M361.1,291h113c2.8,0,5,2.2,5,5v76.2c0,2.8-2.2,5-5,5h-113c-2.8,0-5-2.2-5-5v-76.1
		C356.1,293.3,358.4,291,361.1,291z"/>
</g>
</svg>
