<svg width="20" height="21" fill="none" xmlns="http://www.w3.org/2000/svg"><g clip-path="url(#clip0)"><mask id="a" fill="#fff"><path fill-rule="evenodd" clip-rule="evenodd" d="M10.662 12.969H.095L.003.373 0-.027l.4.005L20 .232v20.752h-9.339v-5.836H.096V13.62h10.566v-.651zm0-.4H.492L.403.378 19.6.627v19.957h-8.539v-5.836H.497v-.728h10.565v-1.451h-.4zm-9.21-1.053V1.269h3.243l.031 10.166-3.273.08zM6.9 1.269v10.247l3.274-.08-.031-10.167H6.9zm11.295 12.413h-6.22V1.565h-.016v-.064h.015v-.037h6.22v12.218z"/></mask><path fill-rule="evenodd" clip-rule="evenodd" d="M10.662 12.969H.095L.003.373 0-.027l.4.005L20 .232v20.752h-9.339v-5.836H.096V13.62h10.566v-.651zm0-.4H.492L.403.378 19.6.627v19.957h-8.539v-5.836H.497v-.728h10.565v-1.451h-.4zm-9.21-1.053V1.269h3.243l.031 10.166-3.273.08zM6.9 1.269v10.247l3.274-.08-.031-10.167H6.9zm11.295 12.413h-6.22V1.565h-.016v-.064h.015v-.037h6.22v12.218z" fill="#fff"/><path d="M10.662 12.969h.4v-.4h-.4v.4zm-10.566 0l-.4.003.003.397h.397v-.4zM.003.373l-.4.003.4-.003zM0-.027l.005-.4-.408-.006.003.409.4-.003zm.4.005l-.005.4.005-.4zM20 .232h.4v-.395l-.395-.005-.005.4zm0 20.752v.4h.4v-.4H20zm-9.338 0h-.4v.4h.4v-.4zm0-5.836h.4v-.4h-.4v.4zm-10.566 0h-.4v.4h.4v-.4zm0-1.528v-.4h-.4v.4h.4zm10.566 0v.4h.4v-.4h-.4zM.492 12.569l-.4.003.003.397h.397v-.4zM.403.378l.005-.4L0-.027.003.38l.4-.003zM19.6.627h.4V.232l-.395-.005-.005.4zm0 19.957v.4h.4v-.4h-.4zm-8.539 0h-.4v.4h.4v-.4zm0-5.836h.4v-.4h-.4v.4zm-10.565 0h-.4v.4h.4v-.4zm0-.728v-.4h-.4v.4h.4zm10.566 0v.4h.4v-.4h-.4zm0-1.451h.4v-.4h-.4v.4zm-9.61-11.3v-.4h-.4v.4h.4zm0 10.247h-.4v.41l.41-.01-.01-.4zM4.696 1.269h.4l-.001-.4h-.399v.4zm.031 10.166l.01.4.392-.01-.002-.39h-.4zm2.174.08h-.4v.41l.41-.01-.01-.4zm0-10.246v-.4h-.4v.4h.4zm3.274 10.166l.01.4.39-.01v-.39h-.4zM10.143 1.27h.4l-.002-.4h-.398v.4zm1.831 12.413h-.4v.4h.4v-.4zm6.22 0v.4h.4v-.4h-.4zm-6.22-12.117h.4v-.4h-.4v.4zm-.015 0h-.4v.4h.4v-.4zm0-.064v-.4h-.4v.4h.4zm.015 0v.4h.4v-.4h-.4zm0-.037v-.4h-.4v.4h.4zm6.22 0h.4v-.4h-.4v.4zM10.263 13.37h.4v-.8h-.4v.8zm-10.166 0h10.165v-.8H.097v.8zm0 0v-.8.8zM-.397.376l.093 12.596.8-.006L.403.37l-.8.006zm-.003-.4l.003.4.8-.006L.4-.03l-.8.006zm.805-.398l-.4-.005-.01.8.4.005.01-.8zm19.6.254L.405-.422l-.01.8 19.6.254.01-.8zm.395 20.752V.232h-.8v20.352h.8zm0 .4v-.4h-.8v.4h.8zm-.66.4H20v-.8h-.26v.8zm-.14 0h.14v-.8h-.14v.8zm-8.539 0H19.6v-.8h-8.539v.8zm-.4 0h.4v-.8h-.4v.8zm-.4-.8v.4h.8v-.4h-.8zm0-5.036v5.036h.8v-5.036h-.8zm0-.4v.4h.8v-.4h-.8zm0 .4h.4v-.8h-.4v.8zm-9.765 0h9.765v-.8H.496v.8zm-.4 0h.4v-.8h-.4v.8zm-.4-.8v.4h.8v-.4h-.8zm0-.728v.728h.8v-.728h-.8zm0-.4v.4h.8v-.4h-.8zm.8-.4h-.4v.8h.4v-.8zm9.766 0H.495v.8h9.765v-.8zm.4 0h-.4v.8h.4v-.8zm-.4.149v.25h.8v-.25h-.8zm0-.15v.15h.8v-.15h-.8zm0-.25v.25h.8v-.25h-.8zm-9.769 0h10.168v-.8H.494v.8zM.003.38l.09 12.19.8-.005L.803.375l-.8.006zM19.605.227L.408-.022l-.01.8 19.197.249.01-.8zM20 20.584V.627h-.8v19.957h.8zm-8.938.4H19.6v-.8h-8.539v.8zm-.4-5.836v5.436h.8v-5.436h-.8zm0-.4v.4h.8v-.4h-.8zm0 .4h.4v-.8h-.4v.8zm-10.166 0h10.165v-.8H.497v.8zm-.4-1.128v.728h.8v-.728h-.8zm10.566-.4H.495v.8h10.165v-.8zm.4 0h-.4v.8h.4v-.8zm-.4 0v.4h.8v-.4h-.8zm0-.651v.65h.8v-.65h-.8zm0-.4v.4h.8v-.4h-.8zm0 .4h.4v-.8h-.4v.8zm-9.61-11.7v10.247h.8V1.269h-.8zm3.643-.4H1.453v.8h3.242v-.8zm.431 10.565l-.03-10.166-.8.003.03 10.166.8-.003zm-3.664.482l3.274-.08-.02-.8-3.273.08.02.8zm5.838-.4V1.269h-.8v10.247h.8zm2.864-.48l-3.274.08.02.8 3.274-.08-.02-.8zM9.743 1.27l.03 10.166.8-.003-.03-10.166-.8.003zM6.9 1.669h3.243v-.8H6.9v.8zm5.074 12.413h6.22v-.8h-6.22v.8zm-.4-12.517v12.117h.8V1.565h-.8zm.385.4h.015v-.8h-.015v.8zm-.4-.464v.064h.8v-.064h-.8zm.415-.4h-.015v.8h.015v-.8zm-.4.363v.037h.8v-.037h-.8zm6.62-.4h-6.22v.8h6.22v-.8zm.4 12.618V1.464h-.8v12.218h.8z" fill="#1D2233" mask="url(#a)"/></g><defs><clipPath id="clip0"><path fill="#fff" d="M0 0h20v21H0z"/></clipPath></defs></svg>