<svg width="20" height="12" fill="none" xmlns="http://www.w3.org/2000/svg"><g clip-path="url(#clip0)"><path d="M18.7 4.515l1.08 1.04c.048.048.097.143.097.214v3.357H.123V5.769c0-.071.024-.166.098-.213l1.08-1.04a.372.372 0 01.22-.095h16.957c.099 0 .172.024.221.094z" fill="#fff" stroke="#1D2233" stroke-width=".4" stroke-miterlimit="10" stroke-linecap="round" stroke-linejoin="round"/><path d="M.123 9.126v2.482-2.482zm19.754 0v2.482z" fill="#fff"/><path d="M19.877 9.126v2.482M.123 9.127v2.482-2.482z" stroke="#1D2233" stroke-width=".4" stroke-miterlimit="10" stroke-linecap="round" stroke-linejoin="round"/><path d="M1.718.78h16.564v3.64H1.718V.78z" fill="#fff" stroke="#1D2233" stroke-width=".4" stroke-miterlimit="10" stroke-linecap="round" stroke-linejoin="round"/><path d="M1.718.78V.189.78zm16.564 0V.189.78zM9.571 2.955H2.135a.432.432 0 00-.442.426v.638c0 .237.197.426.442.426h7.436c.245 0 .441-.19.441-.426v-.638a.432.432 0 00-.441-.426z" fill="#fff" stroke="#1D2233" stroke-width=".4" stroke-miterlimit="10" stroke-linecap="round" stroke-linejoin="round"/><path d="M17.865 2.955h-7.436a.432.432 0 00-.441.426v.638c0 .236.196.426.441.426h7.436c.245 0 .442-.19.442-.426v-.638c-.025-.237-.221-.426-.442-.426z" fill="#fff" stroke="#1D2233" stroke-width=".4" stroke-miterlimit="10" stroke-linecap="round" stroke-linejoin="round"/></g><defs><clipPath id="clip0"><path fill="#fff" d="M0 0h20v11.822H0z"/></clipPath></defs></svg>