<?xml version="1.0" encoding="utf-8"?>
<!-- Generator: Adobe Illustrator 21.1.0, SVG Export Plug-In . SVG Version: 6.00 Build 0)  -->
<svg version="1.1" id="Слой_1" xmlns="http://www.w3.org/2000/svg" xmlns:xlink="http://www.w3.org/1999/xlink" x="0px" y="0px"
	 viewBox="0 0 918.1 1004.2" style="enable-background:new 0 0 918.1 1004.2;" xml:space="preserve">
<style type="text/css">
	.st0{fill:#FFFFFF;stroke:#1D2233;stroke-width:8;}
	.st1{fill:#FFFFFF;stroke:#1D2233;stroke-width:5;}
	.st2{fill:#1D2233;}
</style>
<path class="st0" d="M618.6,634.8l0-1h-1H298.3h-1v1v364.4H117.2V497.7v-1l-1,0l-104.9-1L459,7.4l447.7,488.2H801.9h-1v1v501.5
	H620.7L618.6,634.8z M616.6,635.8l2.1,362.3l-319.4,1.1V635.8H616.6z"/>
<path class="st1" d="M387.2,347.8c0.5-38.9,32-70.3,70.9-70.9v70.9H387.2z M460.1,347.8v-70.9c38.9,0.5,70.3,32,70.9,70.9H460.1z
	 M387.2,349.8h70.9v70.9C419.2,420.1,387.7,388.7,387.2,349.8z M460.1,420.6v-70.9h70.9C530.4,388.7,498.9,420.1,460.1,420.6z"/>
<circle class="st2" cx="398.8" cy="814.7" r="11.6"/>
</svg>
