<svg xmlns="http://www.w3.org/2000/svg" viewBox="0 0 806.22 244.13" id="logo-sr"><defs><style>.cls-1{fill:#00afec;}.cls-1,.cls-2,.cls-3,.cls-4,.cls-5,.cls-6{fill-rule:evenodd;}.cls-2{fill:#ff7506;}.cls-3{fill:#fff;}.cls-4{fill:#ffbe15;}.cls-5{fill:#ff8000;}.cls-6{fill:#fff700;}</style></defs><title>logo-header-white-sr</title><g id="Layer_2" data-name="Layer 2"><g id="_1" data-name="1"><path class="cls-1" d="M235.69,137.91c-1.59,33.09-1.3,66-2.32,99.11,1.3,6.36,10.26,10.84,12.72,2.75-.43-10.69-.87-21.38-1.16-32.08,9.25,1,22.11,3.18,31.5.44,24.27-7.52,24.56-51.87,8.09-66.61-9.1-8.23-32.65-6.5-42.33-.29-.15-.57-.15-4.33-.15-5l-6.35,1.73Zm7.65,12.86C278,124.62,301.86,181.4,272.24,197c-7.66,4.05-21.09,1.45-27.74-2.31l-1.16-43.92Zm110.82,82.06,1.44,6.36c-10.54-.43-46.08,2.46-55.19,0,2.89-31.93.44-74.84,3.47-102.72,11.56,1.15,41.18.14,52.59,2l1.45,6.36c-10.7,1.87-34.53,3.17-45.37,4.33.43,11.12,1.16,18.64,1.3,29.76,8.67,1,25,2.17,33.52,3l1.44,6.35c-9.1.87-25.71,2.75-34.82,2.89.15,9.68-.57,27.6-.43,37.42,12.28,1.16,28.46,2.31,40.6,4.19ZM467,239.19c-6.79-32.94-12.57-67.76-20.81-99.69-5.92-.58-9.1-1-14.16-1.3-5.2,14-10.25,41.46-17.48,59.38-3-8-13.72-57.07-18.06-57.79-3-.43-8.81-1.74-14.45-.87-2.74,33.67-14.73,65.45-18.92,99.4l8.81.87c4.77-16.76,17.34-62.42,19.65-83.22,3.32,15.17,15.46,49.41,15.75,56.92,3.18,0,10.69,1.16,14.16.73,6.06-17.2,9.68-37.42,17.91-56.78,7.23,27.74,12.14,53.45,16.91,83.36l10.69-1Zm7.8-66.46c-1.59,13.29-7.51,50.86,5.2,61,6.36,4.91,18.64,6.36,26.15,7.08,24.42,2.17,27.6-13.58,29.48-34.68,2.6-26.44,3.17-67.61-31.93-73.1-11-.44-24.71,5.63-26.3,18.92l-2.6,20.81Zm32.36-27.6c23.12,4.05,30.49,84.81-.57,86.4-27.31,1.45-22.83-19.21-22.69-42.47.15-15.46-1.88-49.7,23.26-43.93ZM590,137.77c0,43.2-.14,43-.29,43-10.84,1-21.67,2-32.51,2.89-.43-13.73-1.44-32.51-2.16-46.23L548.63,136c-1.88,30.78-1,68.49-2.17,99.26,1.3,6.36,10.26,10.84,12.72,2.74-.58-15.17-1.59-30.63-2-45.94,11.27.72,22.11-.87,32.94-1.59-.14,13.29.15,31.5-.14,44.79,1.3,6.36,10.26,10.84,12.71,2.74-2.31-34.38-.14-67.32-4.62-102L590,137.77Zm20.8,6.79c8.24.43,16.48.86,24.71,1.44-1.44,29.47.15,58.8-.72,88.28,1.3,6.36,10.26,10.83,12.71,2.74-1.3-30.19-3-60.53-5.2-90.59l23.7,1.3c9.68-1,5.49-12.13-2.75-12.71-17.91,1-35.83,2.17-53.89,3.18l1.44,6.36Zm67,28.17,2.6-20.81c1.59-13.29,15.32-19.36,26.3-18.92,35.11,5.49,34.53,46.66,31.93,73.1-1.88,21.1-5.06,36.85-29.47,34.68-7.52-.72-19.8-2.17-26.16-7.08-12.71-10.11-6.79-47.68-5.2-61Zm32.37-27.6C685,139.36,687,173.6,686.9,189.06c-.15,23.26-4.63,43.92,22.68,42.47,31.06-1.59,23.69-82.35.58-86.4Zm37.42,90.45c10.4,10.11,62.85,2.6,58.37-27-.44-12.14-10.41-29.18-19.65-30.2,7.08-2.74,12.13-14.15,11.27-23.4-1.16-11.7-11.56-18.35-22.11-21.67-5.63-1.88-24.7-5.06-27.16,2.89l-.72,99.4Zm11.56-48.84c19.21-4.62,35.68,2.46,35.68,20.38.15,16.61-26.44,30.19-36,18.06-.15-10.55.57-27.89.29-38.44Zm-.29-12.28c-.15-10.54,0-19.07-.44-33.52a.15.15,0,0,0,.15.15C794.68,129.53,796.84,184.58,758.85,174.46Z"/><path class="cls-2" d="M286.53,17.4C270.93,7.05,237.33-1.35,227.88,23c-10.5,27.15-13,57.75,3.9,82.8,15.75,22.8,38.7,16.65,59.4,2.4-1.8-3.6-2.55-5.7-5.1-9.3-19.8,10.05-36.9,17.25-47.85-4.5-9.3-18.6-6.75-24.3-7-42.15,1.95-37.8,27.3-44.4,49.5-28.05l5.85-6.75ZM300,15.9c8.55.45,17.1.9,25.65,1.5-1.5,30.6.15,61.05-.75,91.65,1.35,6.6,10.65,11.25,13.2,2.85-1.35-31.35-3.15-62.85-5.4-94.05l24.6,1.35C367.38,18.15,363,6.6,354.48,6c-18.6,1-37.2,2.25-56,3.3l1.5,6.6Zm65.25-1.65,7.65-7.2c11.7,19.05,19.95,42.75,30.45,63.15,7.35-18.9,15.3-39.9,22.05-60,4.2-7.65,11.4-1.95,11.85,5-18.45,39.45-31.35,72.3-50.1,103.65l-9.45-1.8c10.2-20.85,12-24.15,18.9-37.2-6-16.65-21.45-46-31.35-65.55Zm155,115.65c1-7.65-.45-20.25.6-27.75-5-.45-5.25-.3-9.6-.75-.9-26.4-2.4-65.25-3.3-91.8-11.7-.15-34.05-.15-45.6.75-.9,30.3,2.25,65-11.25,92.4l-9.6.15c-.45,7.5.9,18.75,2.85,28.2l6.3.6c1.05-7.35,2.25-14.55,3.3-18.45,18.15-.9,36.9-1.5,55.2,0a51,51,0,0,1,4.5,15.15l6.6,1.5Zm-57.3-28.05c11.25-28,9.15-54.15,11.25-83.25,8.85-.45,15.9-1.5,24.45-.75-.9,27.3.3,56.7-.6,84-11.55.9-23.25,0-35.1,0Zm64.8-95.1c-1.65,32.85-1.2,70.8-2.25,103.65,1.35,6.6,10.65,11.25,13.2,2.85-.15-3.9-.45-7.8-.6-11.85,16-18.3,28.2-46.05,40.2-67.05-.45,22.95,0,51.75-.75,74.7,1.35,6.6,10.65,11.25,13.2,2.85-1.35-29.7-.9-63.75-2-94.35-.15-8-5.4-16.2-11.85-10.65-9.75,28.35-30,65.4-39.3,81.75-.9-25.2-1.8-55.2-3.3-80.4l-6.6-1.5Zm87.3,4.8c-19.5,9.45-16.5,44.1-1.35,53.1,4.05,2.4,10.35,3.3,17.1,3.6-4.2,15.9-12.9,40.8-36.9,49.05l2.4,6.6c20.4-4.5,45-36,47.25-55.65,3,0,5.85-.3,8.4-.3-.15,13.65-.45,27.45-.9,41.1,1.35,6.6,10.65,11.25,13.2,2.85-2.25-71.85-.6-97.05-2.7-102.3-14.85-2.55-38.25-1.65-46.5,2Zm37.5,47.1c-26.1,5.85-38.85-1.65-40-20.4-.9-13.5,12.9-26.55,40.8-17.7Z"/><path class="cls-3" d="M29.1,109.25c-.86-.3-4.91-5.91-5.53-6.79a51.32,51.32,0,0,1-9.35-27.94,58.47,58.47,0,0,1,12.1-37.64c6.81-9.07,16-16.91,25.91-23.65A78,78,0,0,1,68.88,5a80.26,80.26,0,0,1,9.64-2.77c1.81-.42,3.47-.69,5.24-.94.74-.11,5.55-.48,5.66-.53h.52L92.53.68h.8s6,.28,6.73.36c13.25,1.32,27.14,6.16,38.62,12.1s25.43,16,31.73,26.14c-2.61-.17-7.8-3-9.85-4.12a62.64,62.64,0,0,0-9.5-4.5c-10-3.76-10.94-4.26-21.6-6.46C111.83,20.57,96.59,20.36,80,25.47c-14,4.31-26.89,11.78-34.77,21.38C41.69,51.18,37,58.36,37,66.69a18.14,18.14,0,0,0,3.36,10.73c1.55,2.13,5.31,5.8,7.5,6.48,1.43-.39,3.71-4.22,4.52-5.67,1.63-2.9.62-5.33-.46-8-1.32-3.29-1-5.27.19-8.38a42.53,42.53,0,0,1,3.48-6.75A64.38,64.38,0,0,1,76.13,34.61c19.68-12.67,44-11,65.14-1.08,8.5,4,18,10.43,24.26,16.69,8.14,8.21,12.18,12.69,18.26,22.79a43,43,0,0,0,4,6.27c2,2.23,6,1.54,5-2.15a59.8,59.8,0,0,0-2.51-7.73c-1-2.41-2.38-4.63-2.67-7.67s.42-2,1.73-.81c4,3.48,7.14,10.31,10.83,14.81,1,1.2,4.12,4.37,5.59,4.77,0-5.16-.33-7.78-1.71-11.87A63.21,63.21,0,0,0,194,51c-1-1.31-2.09-2.51-3.12-3.78s-2.34-2.44-3.35-3.67a66.09,66.09,0,0,0-7-6.81c-2.55-2.09-4.91-4.17-7.53-6.28a150.3,150.3,0,0,0-16.5-11.21A144.72,144.72,0,0,0,117.47,3.05C102-.84,84-.84,67.31,2.09,51.26,4.92,39.6,10.7,29,19.13c-8.77,7-20.09,19.59-24.59,30.72-5.9,14.57-6,31.86.43,46,2.74,6,6.6,12.32,11,16.64,1.18,1.16,2.22,2.36,3.49,3.4.89.73,2.78,3.11,4.33,1.83C25.05,116.58,29.1,111.46,29.1,109.25Z"/><path class="cls-3" d="M176.65,129.94c.9.13,5,6,5.64,6.8,5.15,7.1,9.16,18,9.26,27.59.18,17.68-4.84,27.73-11.74,37.54-5.86,8.35-17,17.91-25.68,23.68a79.93,79.93,0,0,1-16.45,8.29A75.4,75.4,0,0,1,123,237.69c-.63.1-5.34.56-5.42.59l-1.73.12h-.74c-18.74.38-35.06-5.9-47.07-11.9A112.68,112.68,0,0,1,49.93,215a74.25,74.25,0,0,1-7.75-7c-1.48-1.49-6-6.37-6.7-8.14,2.6.11,8.11,3.17,10,4.22a112.22,112.22,0,0,0,31.17,10.9c6.65,1.35,17.84,2.88,25.33,2.71,20.68-.49,46.49-10.31,58.6-25.53,3.5-4.4,8.26-11.28,8.2-19.84-.09-12.18-9.86-16.08-10.84-17.25a17,17,0,0,0-4,4.92c-1.52,2.37-1.82,4-.74,7.11.86,2.45,2,4,1.37,7.2A24.57,24.57,0,0,1,152,180.9c-3.56,7.08-10.52,15-16.61,19.61-15,11.41-32.55,16.69-56.74,10.38a88.09,88.09,0,0,1-24.87-11.25,125.8,125.8,0,0,1-10.28-7.77c-3.46-2.81-6.07-5.94-9.18-9a80.09,80.09,0,0,1-8.09-10c-2.49-3.71-4.58-7.4-6.91-11.27-1-1.68-2.8-4.07-5.44-2.6-2.06,1.14-.65,3.5.11,6.67,1.42,6,4.14,6.45,4.14,13.8-1.07-.29-4.08-3.83-4.84-4.82-2.64-3.44-4.92-8-8-11.59-.82-1-4.13-4.31-5.37-4.41,0,9.36,2.71,15.49,6.25,21.36a85.84,85.84,0,0,0,12.06,15.65A152.35,152.35,0,0,0,49.39,220c18.21,11,41,19.26,63.78,19.26,25.61,0,44-4.88,63.47-19.57,9.48-7.14,19.87-18.82,24.8-30.51,6.28-14.89,5.55-31.56-.55-45.93a58.6,58.6,0,0,0-11-16.68c-1.17-1.17-2.36-2.23-3.51-3.39-4-4-4.41-1.14-5.92.35a14.72,14.72,0,0,0-2.89,4C177.05,128.46,176.91,129.35,176.65,129.94Z"/><path class="cls-4" d="M89.94.79h-.52c-.11,0-4.92.42-5.66.53-1.77.25-3.43.52-5.24.94A80.26,80.26,0,0,0,68.88,5a78,78,0,0,0-16.65,8.19C42.31,20,33.13,27.81,26.32,36.88a58.47,58.47,0,0,0-12.1,37.64,51.32,51.32,0,0,0,9.35,27.94c.62.88,4.67,6.49,5.53,6.79.12-.19,2.31-2.37,2.67-2.73a73.9,73.9,0,0,0,7.47-9.1c1.21-1.72,8.31-12.21,8.6-13.52-2.19-.68-6-4.35-7.5-6.48A18.14,18.14,0,0,1,37,66.69c0-8.33,4.71-15.51,8.27-19.84,7.88-9.6,20.8-17.07,34.77-21.38,16.57-5.11,31.81-4.9,49.44-1.27,10.66,2.2,11.57,2.7,21.6,6.46a62.64,62.64,0,0,1,9.5,4.5c2.05,1.14,7.24,4,9.85,4.12-6.3-10.13-20.15-20.14-31.73-26.14S113.31,2.36,100.06,1C99.3,1,93.36.69,93.33.68h-.8Z"/><path class="cls-5" d="M158,155.14c1,1.17,10.75,5.07,10.84,17.25.06,8.56-4.7,15.44-8.2,19.84-12.11,15.22-37.92,25-58.6,25.53-7.49.17-18.68-1.36-25.33-2.71a112.22,112.22,0,0,1-31.17-10.9c-1.92-1.05-7.43-4.11-10-4.22.73,1.77,5.22,6.65,6.7,8.14a74.25,74.25,0,0,0,7.75,7A112.68,112.68,0,0,0,68.05,226.5c12,6,28.33,12.28,47.07,11.9h.74l1.73-.12c.08,0,4.79-.49,5.42-.59a75.4,75.4,0,0,0,14.67-3.85,79.93,79.93,0,0,0,16.45-8.29c8.64-5.77,19.82-15.33,25.68-23.68,6.9-9.81,11.92-19.86,11.74-37.54-.1-9.55-4.11-20.49-9.26-27.59-.59-.81-4.74-6.67-5.64-6.8-.77,1.21-4,4.1-5.29,5.64a117.35,117.35,0,0,0-9.18,12.68A77.34,77.34,0,0,0,158,155.14Z"/><path class="cls-1" d="M69.46,140.07c0,2,3.27.34,5.11-.07a25,25,0,0,1,21.74,5.08c6.7,5.36,10.08,8.76,17.7,13.36a45.85,45.85,0,0,0,7.08,3.27c2.67,1.07,12.68,5.16,15.54,5.16a3.87,3.87,0,0,0,3.68-3.8c0-2.53-6-8.34-8.27-11-1-1.17-2.1-2.2-3-3.39-3-3.7-10.55-8.23-14.92-10.84-8.3-5-16.74-7.14-20.83-17.81a23.87,23.87,0,0,1-1.39-5.06c-.27-2-.19-4.75-2-4.75-1,0-4.63,6-5.4,7.13-1.73,2.43-3.28,5.07-5,7.49C78.2,126.39,69.46,139.09,69.46,140.07Z"/><path class="cls-1" d="M65.55,75.9c0,2.79,3.51,5.74,5.31,7.92,7.35,8.89,10.59,11.5,21,17.63,4.79,2.82,12.51,6,15.76,10,2.28,2.81,3.53,4.08,5,7.88a23.23,23.23,0,0,1,1.35,5.1c.22,1.78.21,4.6,2,4.6,1.27,0,4.57-6,5.4-7.13,1.74-2.44,3.33-5,5.07-7.48,1.14-1.61,9.88-14.24,9.88-15.18,0-2.84-3.29.58-11.27.58-11.62,0-18-8.17-26.74-14.77A52.22,52.22,0,0,0,85,77.57c-3.4-1.36-12.73-5.24-16.15-5.24A3.78,3.78,0,0,0,65.55,75.9Z"/><path class="cls-1" d="M161.82,128.8l-.23-.12.23.12Zm-.23-.12-.12-.11.12.11Zm.23.12c1.39.37,5,3.51,7,2.17a2.54,2.54,0,0,0,.75-3.37c-.68-1.07-1.75-1.7-2.35-2.6,1,.25,2.89,1.46,4.22,1.24s2.14-1.87,2.85-2.8c2.19-2.9,2.7-5-1-6.6-5.13-2.28-10.54-4.36-15.83-6.48-5.12-2-5.33-2.73-7.41.14-1.57,2.16-2.91,4.51-4.49,6.67-3.09,4.23-6.11,9-9,13.38-7.75,11.62-6.73,9-2.94,13.47,1.69,2,8.73,9,11,11.32a7.45,7.45,0,0,0,3.19,2.33c2.07.92,2.31.19,3.42-1.3,1.59-2.16,3.27-4.12,4.94-6.22,1.28-1.59,5.52-7.86,6.82-10,1.11-1.8,1-2.3-.11-3.91,1.49.13,2.22.31,3.08-.72C168.31,132.7,162.91,130.44,161.82,128.8Z"/><path class="cls-1" d="M44.39,110.63l-.34-.23.34.23Zm-.34-.23c-1.26-.34-5.17-3.56-7-2.21-3.14,2.27.65,4.53,1.63,6-1.14-.26-2.72-1.42-4.24-1.26-1.2.12-2.24,1.93-2.87,2.77-2.22,3-2.7,5,1,6.65,5.11,2.28,10.56,4.37,15.84,6.48,7.77,3.11,5,2.52,11.84-6.85,3.09-4.2,6.1-9,9-13.31,6.88-10.31,7.29-9.25,3-13.54-3.74-3.71-7.25-7.59-11-11.33A7.93,7.93,0,0,0,58,81.49c-2.1-1-2.4,0-3.44,1.36-1.63,2.17-3.27,4.08-4.94,6.21s-3.15,4.47-4.56,6.59c-3,4.46-3.82,4.62-2.05,7.27-2.95-.69-4.7,1.64-3.18,3.65C40.79,107.85,43.47,109.53,44.05,110.4Z"/><path class="cls-6" d="M59.46,133.05c0,1.57,3.44,3.38,4.21,3.51,1.72.31,3.09-2.55,3.77-3.69,2.76-4.6,17.85-25.36,17.9-27.42-1.94-.51-4-2.53-5.41-2.53-.7,0-9.34,13.27-10.42,14.88S59.46,132.27,59.46,133.05Z"/><path class="cls-6" d="M125.59,136.27h.23c.71,0,5.47-7.46,6.19-8.53l11.84-17.6c.63-.92,2.81-3.54,2.4-4.63-.33-.89-3.3-2.93-4.45-2.93-1.43,0-2.93,2.86-3.57,3.9-.93,1.52-2,3-3,4.54L123,129c-.41.62-2.88,4.2-2.45,4.73,0,0,2.27,1,2.56,1.23C123.67,135.27,124.93,136.27,125.59,136.27Z"/><path class="cls-6" d="M117,130.18a2.28,2.28,0,0,0,2.19,1.72c.54,0,4.72-6.56,5.31-7.45,2.1-3.15,15.39-22.51,15.39-23a2.15,2.15,0,0,0-2.3-1.73c-1,0-2.34,2.71-2.85,3.48L127,114.72C125.83,116.53,117,129.23,117,130.18Z"/><path class="cls-6" d="M66,137.88c0,.68,1.11,1.61,2.19,1.61s2.36-2.68,2.87-3.45c.87-1.28,1.72-2.53,2.58-3.86,1.7-2.64,3.35-5.08,5.08-7.68s3.41-5.06,5.13-7.64c.91-1.37,4.93-6.7,4.93-8,0-.71-1.17-1.54-1.8-1.65-.85-.15-1.26,1-1.68,1.63-.94,1.41-1.82,2.69-2.78,4.12-1.87,2.78-3.75,5.45-5.59,8.21C75.69,123.08,66,136.93,66,137.88Z"/><path class="cls-6" d="M127.54,137.42c0,.74,1.11,1.48,1.72,1.62,1,.24,1.28-.76,1.76-1.48,3.14-4.7,19.29-27.85,19.29-29.12a2.14,2.14,0,0,0-2.18-1.61c-.87,0-4.55,6.42-5.31,7.46-1.78,2.46-3.43,5.08-5.13,7.63C136.47,123.75,127.54,136.44,127.54,137.42Z"/><path class="cls-6" d="M57.39,132.36c1.33,0,4.49-6,5.5-7.37,1.8-2.47,3.43-5,5.15-7.62,1.45-2.18,10.16-14.43,10.16-15.71,0-.76-1.32-1.61-2-1.61-.81,0-5.08,6.86-5.77,7.91L59.32,124.41c-.58.87-4,5.48-3.84,6.42A2.59,2.59,0,0,0,57.39,132.36Z"/></g></g></svg>