<svg width="24" height="24" viewBox="0 0 24 24" fill="none" xmlns="http://www.w3.org/2000/svg">
<g clip-path="url(#clip0_374_148)">
<path d="M12 22C6.477 22 2 17.523 2 12C2 6.477 6.477 2 12 2C17.523 2 22 6.477 22 12C22 17.523 17.523 22 12 22ZM12 20C14.1217 20 16.1566 19.1571 17.6569 17.6569C19.1571 16.1566 20 14.1217 20 12C20 9.87827 19.1571 7.84344 17.6569 6.34315C16.1566 4.84285 14.1217 4 12 4C9.87827 4 7.84344 4.84285 6.34315 6.34315C4.84285 7.84344 4 9.87827 4 12C4 14.1217 4.84285 16.1566 6.34315 17.6569C7.84344 19.1571 9.87827 20 12 20Z" fill="#EE6908"/>
<path d="M12.6875 12.8184H8.25195V11.6523H12.6582C13.0527 11.6523 13.3711 11.5918 13.6133 11.4707C13.8555 11.3457 14.0332 11.1719 14.1465 10.9492C14.2598 10.7266 14.3164 10.4668 14.3164 10.1699C14.3164 9.9043 14.2598 9.65625 14.1465 9.42578C14.0332 9.19531 13.8574 9.00781 13.6191 8.86328C13.3809 8.71484 13.0703 8.64062 12.6875 8.64062H10.918V16H9.44727V7.46875H12.6875C13.3438 7.46875 13.9023 7.58398 14.3633 7.81445C14.8242 8.04492 15.1777 8.36328 15.4238 8.76953C15.6699 9.17188 15.793 9.63477 15.793 10.1582C15.793 10.7168 15.668 11.1953 15.418 11.5938C15.1719 11.9883 14.8164 12.291 14.3516 12.502C13.8906 12.7129 13.3359 12.8184 12.6875 12.8184ZM12.8281 13.4453V14.6113H8.25195V13.4453H12.8281Z" fill="#EE6908"/>
<rect x="4.43555" y="-0.0712891" width="1.04348" height="28.5224" transform="rotate(-30 4.43555 -0.0712891)" fill="#EE6908"/>
</g>
<defs>
<clipPath id="clip0_374_148">
<rect width="24" height="24" fill="white"/>
</clipPath>
</defs>
</svg>
