<svg width="28" height="28" viewBox="0 0 28 28" fill="none" xmlns="http://www.w3.org/2000/svg">
<path d="M6.37644 17.0972L4.32031 25.6998C4.25664 25.9603 4.27575 26.2333 4.37515 26.4832C4.47455 26.733 4.64962 26.9481 4.87749 27.1003C5.10536 27.2525 5.37544 27.3347 5.65245 27.3363C5.92946 27.3379 6.20053 27.2588 6.43025 27.1092L13.9441 22.2692L21.4579 27.1092C21.693 27.26 21.9702 27.3376 22.2523 27.3316C22.5344 27.3256 22.8078 27.2363 23.0358 27.0757C23.2638 26.9151 23.4354 26.6909 23.5276 26.4333C23.6197 26.1756 23.628 25.8969 23.5513 25.6345L21.0274 17.1012L27.2869 11.6585C27.4873 11.4841 27.6305 11.2567 27.6987 11.0045C27.7668 10.7523 27.757 10.4863 27.6704 10.2395C27.5837 9.99264 27.4241 9.77574 27.2113 9.61561C26.9984 9.45547 26.7416 9.35914 26.4727 9.33851L18.6056 8.73317L15.2012 1.45184C15.0927 1.21738 14.9162 1.01829 14.6932 0.878587C14.4701 0.738887 14.2099 0.664551 13.9441 0.664551C13.6783 0.664551 13.4181 0.738887 13.195 0.878587C12.972 1.01829 12.7955 1.21738 12.687 1.45184L9.28262 8.73317L1.4155 9.33717C1.15118 9.35741 0.898489 9.45079 0.687655 9.60615C0.476822 9.76151 0.316776 9.97227 0.226665 10.2132C0.136555 10.4542 0.120194 10.7151 0.179542 10.9648C0.23889 11.2145 0.371433 11.4424 0.561314 11.6212L6.37644 17.0972ZM10.3134 11.3292C10.5598 11.3104 10.7963 11.228 10.9983 11.0905C11.2003 10.9531 11.3603 10.7656 11.4616 10.5478L13.9441 5.23984L16.4266 10.5478C16.5279 10.7656 16.6879 10.9531 16.8899 11.0905C17.0919 11.228 17.3284 11.3104 17.5748 11.3292L23.0559 11.7492L18.5421 15.6745C18.1502 16.0158 17.9943 16.5412 18.1378 17.0318L19.8669 22.8785L14.7114 19.5572C14.4851 19.4104 14.2187 19.3321 13.9462 19.3321C13.6736 19.3321 13.4073 19.4104 13.181 19.5572L7.79365 23.0278L9.2426 16.9665C9.29573 16.7436 9.2886 16.5112 9.2219 16.2917C9.15519 16.0722 9.03116 15.873 8.86173 15.7132L4.66943 11.7638L10.3134 11.3292Z" fill="#EE6908"/>
</svg>
