<svg width="81" height="81" fill="none" xmlns="http://www.w3.org/2000/svg"><path d="M62.648 6.328a1.583 1.583 0 10.002 3.165 1.583 1.583 0 00-.002-3.165zM38.918 71.508a1.583 1.583 0 10.001 3.165 1.583 1.583 0 00-.001-3.165z" fill="#004298"/><path d="M72.14 9.492H70.56V4.746A4.751 4.751 0 0065.813 0h-53.79a4.751 4.751 0 00-4.746 4.746v4.746H5.695a1.582 1.582 0 000 3.164h1.582v5.221a4.751 4.751 0 004.747 4.746h53.789a4.751 4.751 0 004.746-4.746v-5.22h1.582c.872 0 1.582.709 1.582 1.581v10.416c0 .787-.564 1.445-1.342 1.565l-.035.005-31.005 5.5a4.72 4.72 0 00-4.005 4.688v2.031H32.59a4.715 4.715 0 00-3.356 1.391 4.715 4.715 0 00-1.39 3.355 4.752 4.752 0 004.53 4.741l-2.861 22.292v.001l-.001.01v.001a9.645 9.645 0 00-.086 1.274c0 5.234 4.258 9.492 9.492 9.492 5.234 0 9.492-4.258 9.492-9.492 0-.421-.028-.849-.085-1.272v-.004L45.462 47.93a4.71 4.71 0 003.14-1.385 4.715 4.715 0 001.39-3.355 4.751 4.751 0 00-4.746-4.747H40.5v-2.03c0-.788.564-1.446 1.342-1.565l.035-.006 31.005-5.5a4.72 4.72 0 004.005-4.688V14.238a4.751 4.751 0 00-4.746-4.746zm-4.745 8.385c0 .872-.71 1.582-1.582 1.582h-53.79c-.872 0-1.582-.71-1.582-1.582V4.747c0-.873.71-1.583 1.582-1.583h53.79c.872 0 1.582.71 1.582 1.582v13.131zm-28.477 59.96a6.335 6.335 0 01-6.27-7.191v-.006l.002-.005 2.914-22.7h6.708l2.914 22.7.001.006v.005a6.335 6.335 0 01-6.27 7.19zm6.328-36.23a1.584 1.584 0 011.118 2.7c-.299.3-.696.465-1.118.465H32.59a1.584 1.584 0 01-1.118-2.7 1.57 1.57 0 011.118-.465h12.656z" fill="#004298"/><path d="M56.32 6.328H15.187a1.582 1.582 0 000 3.164H56.32a1.582 1.582 0 000-3.164z" fill="#004298"/></svg>