<svg width="38" height="13" viewBox="0 0 38 13" fill="none" xmlns="http://www.w3.org/2000/svg">
<path d="M5.26562 0.601562V12H3.01562V3.19531L0.3125 4.05469V2.28125L5.02344 0.601562H5.26562ZM16.625 5.3125V7.28125C16.625 8.13542 16.5339 8.8724 16.3516 9.49219C16.1693 10.1068 15.9062 10.612 15.5625 11.0078C15.224 11.3984 14.8203 11.6875 14.3516 11.875C13.8828 12.0625 13.362 12.1562 12.7891 12.1562C12.3307 12.1562 11.9036 12.099 11.5078 11.9844C11.112 11.8646 10.7552 11.6797 10.4375 11.4297C10.125 11.1797 9.85417 10.8646 9.625 10.4844C9.40104 10.099 9.22917 9.64062 9.10938 9.10938C8.98958 8.57812 8.92969 7.96875 8.92969 7.28125V5.3125C8.92969 4.45833 9.02083 3.72656 9.20312 3.11719C9.39062 2.5026 9.65365 2 9.99219 1.60938C10.3359 1.21875 10.7422 0.932292 11.2109 0.75C11.6797 0.5625 12.2005 0.46875 12.7734 0.46875C13.2318 0.46875 13.6562 0.528646 14.0469 0.648438C14.4427 0.763021 14.7995 0.942708 15.1172 1.1875C15.4349 1.43229 15.7057 1.7474 15.9297 2.13281C16.1536 2.51302 16.3255 2.96875 16.4453 3.5C16.5651 4.02604 16.625 4.63021 16.625 5.3125ZM14.3672 7.57812V5.00781C14.3672 4.59635 14.3438 4.23698 14.2969 3.92969C14.2552 3.6224 14.1901 3.36198 14.1016 3.14844C14.013 2.92969 13.9036 2.7526 13.7734 2.61719C13.6432 2.48177 13.4948 2.38281 13.3281 2.32031C13.1615 2.25781 12.9766 2.22656 12.7734 2.22656C12.5182 2.22656 12.2917 2.27604 12.0938 2.375C11.901 2.47396 11.737 2.63281 11.6016 2.85156C11.4661 3.0651 11.362 3.35156 11.2891 3.71094C11.2214 4.0651 11.1875 4.4974 11.1875 5.00781V7.57812C11.1875 7.98958 11.2083 8.35156 11.25 8.66406C11.2969 8.97656 11.3646 9.24479 11.4531 9.46875C11.5469 9.6875 11.6562 9.86719 11.7812 10.0078C11.9115 10.1432 12.0599 10.2422 12.2266 10.3047C12.3984 10.3672 12.5859 10.3984 12.7891 10.3984C13.0391 10.3984 13.2604 10.349 13.4531 10.25C13.651 10.1458 13.8177 9.98438 13.9531 9.76562C14.0938 9.54167 14.1979 9.25 14.2656 8.89062C14.3333 8.53125 14.3672 8.09375 14.3672 7.57812ZM25.8125 5.3125V7.28125C25.8125 8.13542 25.7214 8.8724 25.5391 9.49219C25.3568 10.1068 25.0938 10.612 24.75 11.0078C24.4115 11.3984 24.0078 11.6875 23.5391 11.875C23.0703 12.0625 22.5495 12.1562 21.9766 12.1562C21.5182 12.1562 21.0911 12.099 20.6953 11.9844C20.2995 11.8646 19.9427 11.6797 19.625 11.4297C19.3125 11.1797 19.0417 10.8646 18.8125 10.4844C18.5885 10.099 18.4167 9.64062 18.2969 9.10938C18.1771 8.57812 18.1172 7.96875 18.1172 7.28125V5.3125C18.1172 4.45833 18.2083 3.72656 18.3906 3.11719C18.5781 2.5026 18.8411 2 19.1797 1.60938C19.5234 1.21875 19.9297 0.932292 20.3984 0.75C20.8672 0.5625 21.388 0.46875 21.9609 0.46875C22.4193 0.46875 22.8438 0.528646 23.2344 0.648438C23.6302 0.763021 23.987 0.942708 24.3047 1.1875C24.6224 1.43229 24.8932 1.7474 25.1172 2.13281C25.3411 2.51302 25.513 2.96875 25.6328 3.5C25.7526 4.02604 25.8125 4.63021 25.8125 5.3125ZM23.5547 7.57812V5.00781C23.5547 4.59635 23.5312 4.23698 23.4844 3.92969C23.4427 3.6224 23.3776 3.36198 23.2891 3.14844C23.2005 2.92969 23.0911 2.7526 22.9609 2.61719C22.8307 2.48177 22.6823 2.38281 22.5156 2.32031C22.349 2.25781 22.1641 2.22656 21.9609 2.22656C21.7057 2.22656 21.4792 2.27604 21.2812 2.375C21.0885 2.47396 20.9245 2.63281 20.7891 2.85156C20.6536 3.0651 20.5495 3.35156 20.4766 3.71094C20.4089 4.0651 20.375 4.4974 20.375 5.00781V7.57812C20.375 7.98958 20.3958 8.35156 20.4375 8.66406C20.4844 8.97656 20.5521 9.24479 20.6406 9.46875C20.7344 9.6875 20.8438 9.86719 20.9688 10.0078C21.099 10.1432 21.2474 10.2422 21.4141 10.3047C21.5859 10.3672 21.7734 10.3984 21.9766 10.3984C22.2266 10.3984 22.4479 10.349 22.6406 10.25C22.8385 10.1458 23.0052 9.98438 23.1406 9.76562C23.2812 9.54167 23.3854 9.25 23.4531 8.89062C23.5208 8.53125 23.5547 8.09375 23.5547 7.57812ZM27.3125 3.41406V2.8125C27.3125 2.38021 27.4062 1.98698 27.5938 1.63281C27.7812 1.27865 28.0573 0.994792 28.4219 0.78125C28.7865 0.567708 29.2344 0.460938 29.7656 0.460938C30.3125 0.460938 30.7682 0.567708 31.1328 0.78125C31.5026 0.994792 31.7786 1.27865 31.9609 1.63281C32.1484 1.98698 32.2422 2.38021 32.2422 2.8125V3.41406C32.2422 3.83594 32.1484 4.22396 31.9609 4.57812C31.7786 4.93229 31.5052 5.21615 31.1406 5.42969C30.776 5.64323 30.3255 5.75 29.7891 5.75C29.2474 5.75 28.7917 5.64323 28.4219 5.42969C28.0573 5.21615 27.7812 4.93229 27.5938 4.57812C27.4062 4.22396 27.3125 3.83594 27.3125 3.41406ZM28.8047 2.8125V3.41406C28.8047 3.59635 28.8385 3.77083 28.9062 3.9375C28.9792 4.09896 29.0885 4.23177 29.2344 4.33594C29.3854 4.4349 29.5677 4.48438 29.7812 4.48438C30.0052 4.48438 30.1875 4.4349 30.3281 4.33594C30.4688 4.23177 30.5729 4.09896 30.6406 3.9375C30.7083 3.77083 30.7422 3.59635 30.7422 3.41406V2.8125C30.7422 2.61979 30.7057 2.44271 30.6328 2.28125C30.5651 2.11458 30.4583 1.98177 30.3125 1.88281C30.1719 1.77865 29.9896 1.72656 29.7656 1.72656C29.5573 1.72656 29.3802 1.77865 29.2344 1.88281C29.0885 1.98177 28.9792 2.11458 28.9062 2.28125C28.8385 2.44271 28.8047 2.61979 28.8047 2.8125ZM32.75 9.8125V9.21094C32.75 8.78385 32.8438 8.39323 33.0312 8.03906C33.224 7.6849 33.5026 7.40104 33.8672 7.1875C34.237 6.97396 34.6901 6.86719 35.2266 6.86719C35.7682 6.86719 36.2214 6.97396 36.5859 7.1875C36.9505 7.40104 37.2266 7.6849 37.4141 8.03906C37.6016 8.39323 37.6953 8.78385 37.6953 9.21094V9.8125C37.6953 10.2396 37.6016 10.6302 37.4141 10.9844C37.2318 11.3385 36.9583 11.6224 36.5938 11.8359C36.2292 12.0495 35.7786 12.1562 35.2422 12.1562C34.7005 12.1562 34.2448 12.0495 33.875 11.8359C33.5052 11.6224 33.224 11.3385 33.0312 10.9844C32.8438 10.6302 32.75 10.2396 32.75 9.8125ZM34.25 9.21094V9.8125C34.25 10 34.2917 10.1771 34.375 10.3438C34.4583 10.5104 34.5729 10.6432 34.7188 10.7422C34.8698 10.8411 35.0443 10.8906 35.2422 10.8906C35.4922 10.8906 35.6875 10.8411 35.8281 10.7422C35.9688 10.6432 36.0651 10.5104 36.1172 10.3438C36.1745 10.1771 36.2031 10 36.2031 9.8125V9.21094C36.2031 9.02344 36.1667 8.84896 36.0938 8.6875C36.0208 8.52083 35.9115 8.38802 35.7656 8.28906C35.625 8.1849 35.4453 8.13281 35.2266 8.13281C35.0078 8.13281 34.8255 8.1849 34.6797 8.28906C34.5391 8.38802 34.4323 8.52083 34.3594 8.6875C34.2865 8.84896 34.25 9.02344 34.25 9.21094ZM35.7812 2.25L30.2266 11.1406L29.1328 10.5625L34.6875 1.67188L35.7812 2.25Z" fill="#EE6908"/>
</svg>
