<svg width="20" height="14" fill="none" xmlns="http://www.w3.org/2000/svg"><g clip-path="url(#clip0)"><mask id="a" fill="#fff"><path d="M15.158 2.434c0-1.141.913-2.054 2.054-2.054 1.14 0 2.104.913 2.104 2.054 0 .735-.152 2.154-1.04 3.32"/></mask><path d="M15.558 2.434c0-.92.734-1.654 1.654-1.654v-.8a2.445 2.445 0 00-2.454 2.454h.8zM17.212.78c.932 0 1.704.746 1.704 1.654h.8c0-1.375-1.155-2.454-2.504-2.454v.8zm1.704 1.654c0 .697-.148 2.013-.958 3.078l.637.484c.964-1.266 1.12-2.79 1.12-3.562h-.8z" fill="#1D2233" mask="url(#a)"/><path d="M14.195 3.397a.963.963 0 111.927 0h-1.927v0z" fill="#fff" stroke="#1D2233" stroke-width=".4" stroke-miterlimit="10" stroke-linecap="round" stroke-linejoin="round"/><path d="M.947 5.7h18.106c-.01.127-.027.307-.056.532-.06.466-.175 1.12-.387 1.87-.42 1.481-1.222 3.325-2.747 4.828H4.137C2.612 11.44 1.81 9.596 1.39 8.11a13.221 13.221 0 01-.387-1.874A10.15 10.15 0 01.947 5.7z" fill="#fff" stroke="#1D2233" stroke-width=".4"/><path d="M4.537 4.64h4.107v5.373H4.537V4.64z" fill="#fff" stroke="#1D2233" stroke-width=".4" stroke-miterlimit="10" stroke-linecap="round" stroke-linejoin="round"/><path stroke="#1D2233" stroke-width=".4" d="M4.563 8.925h4.056"/><mask id="b" fill="#fff"><path d="M3.295 13.181H16.73z"/></mask><path d="M3.295 13.181H16.73z" fill="#1D2233"/><path d="M3.295 13.581H16.73v-.8H3.295v.8z" fill="#1D2233" mask="url(#b)"/></g><defs><clipPath id="clip0"><path fill="#fff" d="M0 0h20v13.257H0z"/></clipPath></defs></svg>