<svg width="52" height="52" viewBox="0 0 52 52" fill="none" xmlns="http://www.w3.org/2000/svg">
<path d="M4.33333 6.5H17.3333C19.6319 6.5 21.8363 7.41309 23.4616 9.03841C25.0869 10.6637 26 12.8681 26 15.1667V45.5C26 43.7761 25.3152 42.1228 24.0962 40.9038C22.8772 39.6848 21.2239 39 19.5 39H4.33333V6.5Z" stroke="#0069FF" stroke-width="2" stroke-linecap="round" stroke-linejoin="round"/>
<path d="M47.6667 6.5H34.6667C32.3681 6.5 30.1637 7.41309 28.5384 9.03841C26.9131 10.6637 26 12.8681 26 15.1667V45.5C26 43.7761 26.6848 42.1228 27.9038 40.9038C29.1228 39.6848 30.7761 39 32.5 39H47.6667V6.5Z" stroke="#0069FF" stroke-width="2" stroke-linecap="round" stroke-linejoin="round"/>
</svg>
