<svg width="15" height="15" viewBox="0 0 15 15" fill="none" xmlns="http://www.w3.org/2000/svg">
<path d="M12.4139 1.84252C12.4139 1.41404 12.0665 1.06664 11.6381 1.06664H10.8622C10.8622 0.638171 10.5148 0.290771 10.0863 0.290771C9.65784 0.290771 9.31044 0.638171 9.31044 1.06664H8.27595C8.27595 0.638171 7.92855 0.290771 7.50008 0.290771C7.07161 0.290771 6.72421 0.638171 6.72421 1.06664H5.68972C5.68972 0.638171 5.34232 0.290771 4.91385 0.290771C4.48537 0.290771 4.13798 0.638171 4.13798 1.06664H3.10348C3.10348 0.638171 2.75608 0.290771 2.32761 0.290771C1.89914 0.290771 1.55174 0.638171 1.55174 1.06664H0.77587C0.347399 1.06664 0 1.41404 0 1.84252V12.7047C0 12.8475 0.1158 12.9633 0.258623 12.9633H1.03449V13.7392C1.03449 13.882 1.15029 13.9978 1.29312 13.9978H8.10345C8.10686 13.9978 8.10939 13.9961 8.11254 13.9961C9.48231 14.9408 11.2683 15.0306 12.726 14.2278C14.1836 13.4252 15.0625 11.8677 14.9965 10.2051C14.9305 8.54237 13.9307 7.0597 12.4139 6.37513V1.84252ZM9.82769 1.06664C9.82769 0.923819 9.94349 0.80802 10.0863 0.80802C10.2291 0.80802 10.3449 0.923819 10.3449 1.06664V1.84252H9.82769V1.06664ZM7.24146 1.06664C7.24146 0.923819 7.35726 0.80802 7.50008 0.80802C7.6429 0.80802 7.7587 0.923819 7.7587 1.06664V1.84252H7.24146V1.06664ZM4.65522 1.06664C4.65522 0.923819 4.77102 0.80802 4.91385 0.80802C5.05667 0.80802 5.17247 0.923819 5.17247 1.06664V1.84252H4.65522V1.06664ZM2.06899 1.06664C2.06899 0.923819 2.18479 0.80802 2.32761 0.80802C2.47043 0.80802 2.58623 0.923819 2.58623 1.06664V1.84252H2.06899V1.06664ZM0.517247 1.84252C0.517247 1.69969 0.633047 1.58389 0.77587 1.58389H1.55174V2.10114C1.55174 2.24396 1.66754 2.35976 1.81036 2.35976H2.84486C2.98768 2.35976 3.10348 2.24396 3.10348 2.10114V1.58389H4.13798V2.10114C4.13798 2.24396 4.25377 2.35976 4.3966 2.35976H5.43109C5.57392 2.35976 5.68972 2.24396 5.68972 2.10114V1.58389H6.72421V2.10114C6.72421 2.24396 6.84001 2.35976 6.98283 2.35976H8.01733C8.16015 2.35976 8.27595 2.24396 8.27595 2.10114V1.58389H9.31044V2.10114C9.31044 2.24396 9.42624 2.35976 9.56907 2.35976H10.6036C10.7464 2.35976 10.8622 2.24396 10.8622 2.10114V1.58389H11.6381C11.7809 1.58389 11.8967 1.69969 11.8967 1.84252V3.13564H0.517247V1.84252ZM1.55174 12.9633H7.05608C7.18804 13.1467 7.33402 13.3196 7.49263 13.4806H1.55174V12.9633ZM14.4829 10.3771C14.4829 12.5196 12.746 14.2565 10.6036 14.2565C8.46108 14.2565 6.72421 12.5196 6.72421 10.3771C6.72421 8.23462 8.46108 6.49775 10.6036 6.49775C12.745 6.50015 14.4805 8.23563 14.4829 10.3771ZM10.6036 5.9805C9.05877 5.97949 7.62699 6.78971 6.83256 8.11453C6.03813 9.43922 5.99772 11.084 6.72623 12.4461H0.517247V3.65288H11.8967V6.17523C11.4778 6.04604 11.0419 5.98037 10.6036 5.9805Z" fill="#004298"/>
<path d="M2.32761 4.6875C1.89914 4.6875 1.55174 5.0349 1.55174 5.46337C1.55174 5.89184 1.89914 6.23924 2.32761 6.23924C2.75609 6.23924 3.10349 5.89184 3.10349 5.46337C3.10349 5.0349 2.75609 4.6875 2.32761 4.6875ZM2.32761 5.722C2.18479 5.722 2.06899 5.6062 2.06899 5.46337C2.06899 5.32055 2.18479 5.20475 2.32761 5.20475C2.47044 5.20475 2.58624 5.32055 2.58624 5.46337C2.58624 5.6062 2.47044 5.722 2.32761 5.722Z" fill="#004298"/>
<path d="M4.91386 4.6875C4.48539 4.6875 4.13799 5.0349 4.13799 5.46337C4.13799 5.89184 4.48539 6.23924 4.91386 6.23924C5.34233 6.23924 5.68973 5.89184 5.68973 5.46337C5.68973 5.0349 5.34233 4.6875 4.91386 4.6875ZM4.91386 5.722C4.77104 5.722 4.65524 5.6062 4.65524 5.46337C4.65524 5.32055 4.77104 5.20475 4.91386 5.20475C5.05668 5.20475 5.17248 5.32055 5.17248 5.46337C5.17248 5.6062 5.05668 5.722 4.91386 5.722Z" fill="#004298"/>
<path d="M7.5001 4.6875C7.07163 4.6875 6.72423 5.0349 6.72423 5.46337C6.72423 5.89184 7.07163 6.23924 7.5001 6.23924C7.92857 6.23924 8.27597 5.89184 8.27597 5.46337C8.27597 5.0349 7.92857 4.6875 7.5001 4.6875ZM7.5001 5.722C7.35728 5.722 7.24148 5.6062 7.24148 5.46337C7.24148 5.32055 7.35728 5.20475 7.5001 5.20475C7.64292 5.20475 7.75872 5.32055 7.75872 5.46337C7.75872 5.6062 7.64292 5.722 7.5001 5.722Z" fill="#004298"/>
<path d="M2.32761 6.75635C1.89914 6.75635 1.55174 7.10374 1.55174 7.53221C1.55174 7.96068 1.89914 8.30807 2.32761 8.30807C2.75609 8.30807 3.10349 7.96068 3.10349 7.53221C3.10349 7.10374 2.75609 6.75635 2.32761 6.75635ZM2.32761 7.79083C2.18479 7.79083 2.06899 7.67503 2.06899 7.53221C2.06899 7.38939 2.18479 7.27359 2.32761 7.27359C2.47044 7.27359 2.58624 7.38939 2.58624 7.53221C2.58624 7.67503 2.47044 7.79083 2.32761 7.79083Z" fill="#004298"/>
<path d="M4.91386 6.75635C4.48539 6.75635 4.13799 7.10374 4.13799 7.53221C4.13799 7.96068 4.48539 8.30807 4.91386 8.30807C5.34233 8.30807 5.68973 7.96068 5.68973 7.53221C5.68973 7.10374 5.34233 6.75635 4.91386 6.75635ZM4.91386 7.79083C4.77104 7.79083 4.65524 7.67503 4.65524 7.53221C4.65524 7.38939 4.77104 7.27359 4.91386 7.27359C5.05668 7.27359 5.17248 7.38939 5.17248 7.53221C5.17248 7.67503 5.05668 7.79083 4.91386 7.79083Z" fill="#004298"/>
<path d="M2.32761 8.82544C1.89914 8.82544 1.55174 9.17284 1.55174 9.6013C1.55174 10.0298 1.89914 10.3772 2.32761 10.3772C2.75609 10.3772 3.10349 10.0298 3.10349 9.6013C3.10349 9.17284 2.75609 8.82544 2.32761 8.82544ZM2.32761 9.85992C2.18479 9.85992 2.06899 9.74413 2.06899 9.6013C2.06899 9.45848 2.18479 9.34268 2.32761 9.34268C2.47044 9.34268 2.58624 9.45848 2.58624 9.6013C2.58624 9.74413 2.47044 9.85992 2.32761 9.85992Z" fill="#004298"/>
<path d="M4.91386 8.82544C4.48539 8.82544 4.13799 9.17284 4.13799 9.6013C4.13799 10.0298 4.48539 10.3772 4.91386 10.3772C5.34233 10.3772 5.68973 10.0298 5.68973 9.6013C5.68973 9.17284 5.34233 8.82544 4.91386 8.82544ZM4.91386 9.85992C4.77104 9.85992 4.65524 9.74413 4.65524 9.6013C4.65524 9.45848 4.77104 9.34268 4.91386 9.34268C5.05668 9.34268 5.17248 9.45848 5.17248 9.6013C5.17248 9.74413 5.05668 9.85992 4.91386 9.85992Z" fill="#004298"/>
<path d="M7.24147 10.377C7.24147 12.2338 8.74674 13.7391 10.6036 13.7391C12.4604 13.7391 13.9657 12.2338 13.9657 10.377C13.9657 8.52017 12.4604 7.01489 10.6036 7.01489C8.74763 7.01704 7.24362 8.52105 7.24147 10.377ZM13.4484 10.377H12.9312C12.7884 10.377 12.6726 10.4928 12.6726 10.6356C12.6726 10.7785 12.7884 10.8943 12.9312 10.8943H13.3991C13.1658 12.1461 12.1301 13.091 10.8622 13.2087V12.7046C10.8622 12.5618 10.7464 12.446 10.6036 12.446C10.4608 12.446 10.345 12.5618 10.345 12.7046V13.2087C9.07709 13.091 8.04134 12.1461 7.80809 10.8943H8.27597C8.41879 10.8943 8.53459 10.7785 8.53459 10.6356C8.53459 10.4928 8.41879 10.377 8.27597 10.377H7.75872C7.76061 8.90709 8.88123 7.68014 10.345 7.5454V8.04939C10.345 8.19221 10.4608 8.30801 10.6036 8.30801C10.7464 8.30801 10.8622 8.19221 10.8622 8.04939V7.5454C12.3259 7.68014 13.4466 8.90709 13.4484 10.377Z" fill="#004298"/>
<path d="M10.6592 10.2528L10.3015 9.71627C10.2222 9.59744 10.0616 9.56536 9.94276 9.64454C9.82392 9.72385 9.79185 9.88448 9.87115 10.0033L10.3884 10.7792C10.4292 10.84 10.4939 10.8808 10.5663 10.8914C10.5787 10.8933 10.5911 10.8943 10.6036 10.8942C10.6641 10.8943 10.7227 10.8731 10.7691 10.8345L12.3209 9.54137C12.4308 9.44994 12.4457 9.28679 12.3542 9.17705C12.2628 9.06719 12.0997 9.05216 11.9898 9.14359L10.6592 10.2528Z" fill="#004298"/>
</svg>
