<svg width="52" height="52" viewBox="0 0 52 52" fill="none" xmlns="http://www.w3.org/2000/svg">
<path d="M34.6667 8.66666H39C40.1493 8.66666 41.2515 9.1232 42.0641 9.93586C42.8768 10.7485 43.3333 11.8507 43.3333 13V43.3333C43.3333 44.4826 42.8768 45.5848 42.0641 46.3975C41.2515 47.2101 40.1493 47.6667 39 47.6667H13C11.8507 47.6667 10.7485 47.2101 9.93586 46.3975C9.1232 45.5848 8.66666 44.4826 8.66666 43.3333V13C8.66666 11.8507 9.1232 10.7485 9.93586 9.93586C10.7485 9.1232 11.8507 8.66666 13 8.66666H17.3333" stroke="#0069FF" stroke-width="2" stroke-linecap="round" stroke-linejoin="round"/>
<path d="M32.5 4.33334H19.5C18.3034 4.33334 17.3333 5.30339 17.3333 6.50001V10.8333C17.3333 12.03 18.3034 13 19.5 13H32.5C33.6966 13 34.6667 12.03 34.6667 10.8333V6.50001C34.6667 5.30339 33.6966 4.33334 32.5 4.33334Z" stroke="#0069FF" stroke-width="2" stroke-linecap="round" stroke-linejoin="round"/>
</svg>
