<svg width="26" height="23" viewBox="0 0 26 23" fill="none" xmlns="http://www.w3.org/2000/svg">
<path fill-rule="evenodd" clip-rule="evenodd" d="M19.3807 0.354307L22.7359 0.354307C23.0705 0.354442 23.4018 0.420484 23.7109 0.548668C24.0201 0.676849 24.3009 0.86466 24.5374 1.10138C24.7739 1.33809 24.9615 1.61908 25.0895 1.9283C25.2174 2.23751 25.2832 2.56889 25.2831 2.90352L25.2831 11.0427C25.2831 11.7182 25.0149 12.366 24.5374 12.8438C24.06 13.3216 23.4124 13.5904 22.7369 13.5909L19.3797 13.5909C18.7042 13.5904 18.0566 13.3216 17.5791 12.8438C17.1017 12.366 16.8335 11.7182 16.8335 11.0427L16.8335 2.90352C16.8332 2.22788 17.1013 1.57978 17.5788 1.10174C18.0562 0.623697 18.704 0.354846 19.3797 0.354307L19.3807 0.354307ZM19.3807 12.1204C19.0946 12.1204 18.8202 12.0067 18.6179 11.8044C18.4156 11.6021 18.302 11.3278 18.302 11.0417L18.302 2.90251C18.3022 2.61659 18.416 2.34248 18.6183 2.1404C18.8205 1.93832 19.0948 1.82482 19.3807 1.82482L22.7359 1.82482C22.8774 1.82495 23.0175 1.85296 23.1482 1.90724C23.2789 1.96152 23.3976 2.04102 23.4976 2.14118C23.5976 2.24135 23.6769 2.36023 23.7309 2.49103C23.7849 2.62183 23.8127 2.762 23.8125 2.90352L23.8125 11.0427C23.8123 11.3283 23.6988 11.6021 23.497 11.8041C23.2951 12.0061 23.0214 12.1199 22.7359 12.1204L19.3786 12.1204L19.3807 12.1204ZM15.7538 3.34824C15.767 3.40319 15.7314 3.46221 15.7314 3.5192L15.7314 12.8134C15.7314 12.9152 15.7517 13.0169 15.711 13.1116L15.5859 13.4403C15.3813 14.0753 14.7839 15.0431 13.8202 16.5421C13.1608 17.5669 12.4841 18.6272 12.2734 19.1605C11.9162 20.0672 11.9172 21.2904 11.9478 21.6843C11.9584 21.8201 11.931 21.9562 11.8686 22.0774C11.8062 22.1985 11.7114 22.2999 11.5946 22.3702C11.5336 22.4068 10.9749 22.7304 10.2544 22.7304C9.80565 22.7334 9.36636 22.6015 8.99351 22.3519C7.97179 21.6721 6.82795 20.6096 7.05285 18.4125C7.12307 17.7195 7.4131 17.0692 7.69397 16.4403C7.87715 16.0271 8.05117 15.6364 8.14784 15.268C8.1682 15.1927 8.17023 14.9891 8.17125 14.8182C7.37036 14.749 6.56336 14.6879 5.83879 14.6879C5.38085 14.6879 5.00839 14.692 4.7092 14.695C4.31944 14.6991 4.04875 14.7011 3.85946 14.695C3.72106 14.691 3.5908 14.6869 3.47072 14.6716C3.07863 14.6203 2.70062 14.4917 2.35859 14.2933C2.01656 14.0949 1.7173 13.8305 1.47816 13.5156C0.998559 12.8874 0.784854 12.096 0.883069 11.3118C0.981286 10.5276 1.38356 9.81336 2.00327 9.32286C1.73373 8.8262 1.62896 8.25674 1.70408 7.69666C1.78707 7.05152 2.10479 6.45955 2.59656 6.03382C2.43068 5.62167 2.37268 5.19731 2.42865 4.77498C2.51106 4.17121 2.82442 3.62292 3.30281 3.24545C3.20325 2.99598 3.15574 2.72878 3.16318 2.46028C3.17062 2.19178 3.23285 1.92763 3.34607 1.68405C3.45928 1.44046 3.62109 1.22259 3.82154 1.0438C4.022 0.865009 4.25689 0.729075 4.51178 0.644339C4.94326 0.426561 5.48872 0.381783 6.21533 0.381783C6.45956 0.381783 6.73433 0.386872 7.03657 0.39196C7.45477 0.400778 7.87304 0.405528 8.29133 0.406207C8.87445 0.406207 9.42194 0.388907 9.95214 0.371607C10.3997 0.35476 10.8475 0.344922 11.2954 0.342095C13.1242 0.342095 15.0882 0.574121 15.7538 3.34722L15.7538 3.34824ZM11.2537 1.81158C10.8487 1.81158 10.4386 1.82583 9.97962 1.8411C9.43721 1.8584 8.88768 1.87773 8.28014 1.87773C7.80286 1.87773 7.38359 1.86959 7.00502 1.86247C6.71092 1.85636 6.44939 1.85229 6.21329 1.85229C6.0006 1.85229 5.35643 1.85229 5.16409 1.96321C5.11423 1.99171 5.06233 2.0141 5.00738 2.03038C4.84964 2.07719 4.66646 2.22271 4.63899 2.43032C4.62048 2.536 4.63767 2.64484 4.68783 2.73968C4.84658 2.99715 4.88831 3.3462 4.80283 3.67389C4.7265 3.96391 4.55859 4.19492 4.32657 4.32518C4.13586 4.43046 3.99164 4.60351 3.92247 4.81007C3.85331 5.01663 3.86423 5.24164 3.95309 5.44053C4.11998 5.80993 4.16171 6.69834 3.64474 7.07895C3.39594 7.26077 3.22641 7.53114 3.17112 7.83429C3.11583 8.13744 3.17899 8.45026 3.34758 8.7082C3.6712 9.20176 3.49311 10.079 3.00362 10.4148C2.74656 10.5906 2.54882 10.8402 2.43647 11.1307C2.32412 11.4212 2.30245 11.7389 2.3743 12.0419C2.44615 12.345 2.60815 12.6191 2.83894 12.8283C3.06974 13.0374 3.35849 13.1716 3.66713 13.2133C3.7323 13.2211 3.79791 13.2245 3.86353 13.2235L3.91543 13.2245C4.08844 13.2317 4.34285 13.2286 4.69495 13.2245C4.99923 13.2215 5.37678 13.2174 5.83879 13.2174C6.773 13.2174 7.79167 13.309 8.77675 13.3955L8.9986 13.4159C9.09605 13.4246 9.19078 13.4527 9.27724 13.4985C9.3637 13.5443 9.44015 13.6069 9.50213 13.6826C9.5641 13.7584 9.61036 13.8457 9.63817 13.9395C9.66599 14.0333 9.67482 14.1317 9.66414 14.229C9.64379 14.4142 9.64277 14.6157 9.64176 14.809C9.63972 15.1062 9.63769 15.386 9.57052 15.6435C9.44128 16.1279 9.23571 16.5909 9.03625 17.0397C8.79202 17.5872 8.56203 18.1042 8.51522 18.5631C8.36461 20.0367 9.07187 20.6391 9.80763 21.1286C10.0062 21.2498 10.2439 21.2896 10.4711 21.2396C10.4762 20.6086 10.5464 19.5503 10.9138 18.6201C11.1784 17.9536 11.8674 16.882 12.596 15.7473C13.2544 14.7246 14.0726 13.4515 14.2141 12.9722C14.2242 12.9427 14.1927 12.9131 14.2049 12.8846L14.2619 12.6577L14.2619 3.60875C13.8945 2.06498 13.0692 1.81158 11.2537 1.81158Z" fill="#4777B5"/>
</svg>
