<svg width="16" height="13" viewBox="0 0 16 13" fill="none" xmlns="http://www.w3.org/2000/svg">
<path d="M15.1485 6.57283C15.2759 6.44538 15.3487 6.28151 15.3487 6.09944V4.80672C15.3487 4.62465 15.2759 4.44258 15.1485 4.33333C15.021 4.22409 14.8389 4.13305 14.6569 4.13305H13.2003C13.2003 4.09664 13.2185 4.06022 13.2185 4.02381V2.73109C13.2185 2.54902 13.1457 2.36695 13.0182 2.2577C12.8908 2.13025 12.7269 2.05742 12.5448 2.05742H11.0882C11.0882 2.02101 11.1064 1.98459 11.1064 1.94818V0.673669C11.1064 0.491597 11.0336 0.309524 10.9062 0.20028C10.7787 0.0728292 10.6148 0 10.4328 0H7.0098C6.86415 0 6.7367 0.0546219 6.62745 0.145658C6.51821 0.0728292 6.39076 0 6.2451 0H2.78571C2.60364 0 2.42157 0.0728292 2.31233 0.20028C2.18487 0.327731 2.11205 0.491597 2.11205 0.673669V1.96639C2.11205 2.0028 2.13025 2.03922 2.13025 2.07563H0.67367C0.491597 2.07563 0.327731 2.14846 0.218487 2.2577L0.20028 2.27591C0.0728291 2.40336 0 2.56723 0 2.7493V4.04202C0 4.22409 0.0728291 4.40616 0.20028 4.51541C0.327731 4.64286 0.491597 4.71569 0.67367 4.71569H2.13025C2.13025 4.7521 2.11205 4.78852 2.11205 4.82493V6.11765C2.11205 6.15406 2.13025 6.19048 2.13025 6.22689H0.67367C0.491597 6.22689 0.327731 6.29972 0.218487 6.40896L0.20028 6.42717C0.0728291 6.55462 0 6.71849 0 6.90056V8.19328C0 8.37535 0.0728291 8.55742 0.20028 8.66667C0.327731 8.79412 0.491597 8.86695 0.67367 8.86695H2.13025C2.13025 8.90336 2.11205 8.93978 2.11205 8.97619V10.2689C2.11205 10.3053 2.13025 10.3417 2.13025 10.3782H0.67367C0.491597 10.3782 0.327731 10.451 0.218487 10.5602L0.20028 10.5784C0.0728291 10.7059 0 10.8697 0 11.0518V12.3263C0 12.5084 0.0728291 12.6905 0.20028 12.7997C0.327731 12.9272 0.491597 13 0.67367 13H4.11485C4.2605 13 4.38796 12.9454 4.51541 12.8543C4.62465 12.9272 4.7521 13 4.89776 13H8.33894C8.48459 13 8.61205 12.9454 8.7395 12.8543C8.84874 12.9272 8.97619 13 9.12185 13H12.563C12.7451 13 12.9272 12.9272 13.0364 12.7997C13.1639 12.6723 13.2367 12.5084 13.2367 12.3263V11.0336C13.2367 10.9972 13.2185 10.9608 13.2185 10.9244H14.6751C14.8571 10.9244 15.0392 10.8515 15.1485 10.7241C15.2759 10.5966 15.3487 10.4328 15.3487 10.2507V8.95798C15.3487 8.77591 15.2759 8.59384 15.1485 8.48459C15.021 8.35714 14.8571 8.28431 14.6751 8.28431H13.2185C13.2185 8.2479 13.2367 8.21148 13.2367 8.17507V6.88235C13.2367 6.84594 13.2185 6.80952 13.2185 6.77311H14.6751C14.8571 6.77311 15.0392 6.70028 15.1485 6.57283ZM12.5448 2.64006C12.5812 2.64006 12.5994 2.65826 12.6176 2.67647C12.6359 2.69468 12.6541 2.71288 12.6541 2.7493V4.04202C12.6541 4.07843 12.6359 4.09664 12.6176 4.11485C12.5994 4.13305 12.5812 4.13305 12.5448 4.13305H11.2157H10.4328H9.10364C9.06723 4.13305 9.04902 4.11485 9.03081 4.09664C9.0126 4.07843 8.9944 4.06022 8.9944 4.02381V2.73109C8.9944 2.69468 9.0126 2.67647 9.03081 2.65826C9.04902 2.64006 9.06723 2.64006 9.10364 2.64006H10.4328H12.5448ZM10.542 6.11765C10.542 6.15406 10.5238 6.17227 10.5056 6.19048C10.4874 6.20868 10.4692 6.22689 10.4328 6.22689H9.10364H8.32073H6.9916C6.95518 6.22689 6.93698 6.20868 6.91877 6.19048C6.90056 6.17227 6.88235 6.15406 6.88235 6.11765V4.82493C6.88235 4.78852 6.90056 4.77031 6.91877 4.7521C6.93698 4.73389 6.95518 4.71569 6.9916 4.71569H8.32073H9.10364H10.4328C10.4692 4.71569 10.4874 4.73389 10.5056 4.7521C10.5238 4.77031 10.542 4.78852 10.542 4.82493V6.11765ZM11.2157 6.80952H12.5448C12.5812 6.79132 12.5994 6.80952 12.6176 6.82773C12.6359 6.84594 12.6541 6.86414 12.6541 6.90056V8.19328C12.6541 8.22969 12.6359 8.2479 12.6176 8.26611C12.5994 8.28431 12.5812 8.30252 12.5448 8.30252H11.2157H10.4328H9.10364C9.06723 8.30252 9.04902 8.28431 9.03081 8.26611C9.0126 8.2479 8.9944 8.22969 8.9944 8.19328V6.90056C8.9944 6.86414 9.0126 6.84594 9.03081 6.82773C9.04902 6.80952 9.06723 6.80952 9.10364 6.80952H10.4328H11.2157ZM4.77031 6.88235C4.77031 6.84594 4.78852 6.82773 4.80672 6.80952C4.82493 6.79132 4.84314 6.79132 4.87955 6.79132H6.20868H6.9916H8.32073C8.35714 6.79132 8.37535 6.80952 8.39356 6.82773C8.41176 6.84594 8.42997 6.86414 8.42997 6.90056V8.17507C8.42997 8.21148 8.41176 8.22969 8.39356 8.2479C8.37535 8.26611 8.35714 8.28431 8.32073 8.28431H6.9916H6.20868H4.87955C4.84314 8.28431 4.82493 8.26611 4.80672 8.2479C4.78852 8.22969 4.77031 8.21148 4.77031 8.17507V6.88235ZM4.11485 6.20868H2.78571C2.7493 6.20868 2.73109 6.19048 2.71289 6.17227C2.69468 6.15406 2.67647 6.13585 2.67647 6.09944V4.80672C2.67647 4.77031 2.69468 4.7521 2.71289 4.73389C2.73109 4.71569 2.7493 4.69748 2.78571 4.69748H4.11485H4.89776H6.22689C6.26331 4.69748 6.28151 4.71569 6.29972 4.73389C6.31793 4.7521 6.33613 4.77031 6.33613 4.80672V6.09944C6.33613 6.13585 6.31793 6.15406 6.29972 6.17227C6.28151 6.19048 6.26331 6.20868 6.22689 6.20868H4.89776H4.11485ZM6.90056 0.673669C6.90056 0.655462 6.91877 0.619048 6.93697 0.60084C6.95518 0.582633 6.97339 0.564426 7.0098 0.564426H10.451C10.4874 0.564426 10.5056 0.582633 10.5238 0.60084C10.542 0.619048 10.5602 0.637255 10.5602 0.673669V1.96639C10.5602 2.0028 10.542 2.02101 10.5238 2.03922C10.5056 2.05742 10.4874 2.07563 10.451 2.07563H9.12185H8.33894H7.0098C6.97339 2.07563 6.95518 2.05742 6.93697 2.03922C6.91877 2.02101 6.90056 2.0028 6.90056 1.96639V0.673669ZM7.0098 2.65826H8.33894C8.37535 2.65826 8.39356 2.67647 8.41177 2.69468C8.42997 2.71289 8.44818 2.73109 8.44818 2.76751V4.06022C8.44818 4.09664 8.42997 4.11485 8.41177 4.13305C8.37535 4.13305 8.35714 4.13305 8.32073 4.13305H6.9916H6.20868H4.87955C4.86134 4.13305 4.84314 4.13305 4.82493 4.11485C4.80672 4.09664 4.78852 4.07843 4.78852 4.04202V2.7493C4.78852 2.71288 4.80672 2.69468 4.82493 2.67647C4.84314 2.65826 4.86134 2.65826 4.89776 2.65826H6.22689H7.0098ZM2.67647 0.673669C2.67647 0.637255 2.69468 0.619048 2.71289 0.60084C2.73109 0.582633 2.7493 0.564426 2.78571 0.564426H6.22689C6.26331 0.564426 6.28151 0.582633 6.29972 0.60084C6.31793 0.619048 6.33613 0.637255 6.33613 0.673669V1.96639C6.33613 2.0028 6.31793 2.02101 6.29972 2.03922C6.28151 2.05742 6.26331 2.07563 6.22689 2.07563H4.89776H4.11485H2.78571C2.7493 2.07563 2.73109 2.05742 2.71289 2.03922C2.69468 2.02101 2.67647 2.0028 2.67647 1.96639V0.673669ZM0.67367 4.13305C0.637255 4.13305 0.619048 4.13305 0.60084 4.11485C0.582633 4.09664 0.564426 4.07843 0.564426 4.04202V2.7493C0.564426 2.71288 0.582633 2.69468 0.60084 2.67647C0.619048 2.65826 0.637255 2.65826 0.67367 2.65826H2.78571H4.11485C4.15126 2.65826 4.16947 2.67647 4.18767 2.69468C4.20588 2.71289 4.22409 2.73109 4.22409 2.76751V4.06022C4.22409 4.09664 4.20588 4.11485 4.18767 4.13305C4.16947 4.13305 4.13305 4.13305 4.11485 4.13305H2.78571H0.67367ZM0.67367 8.28431C0.637255 8.28431 0.619048 8.26611 0.60084 8.2479C0.582633 8.22969 0.564426 8.21148 0.564426 8.17507V6.88235C0.564426 6.84594 0.582633 6.82773 0.60084 6.80952C0.619048 6.79132 0.637255 6.79132 0.67367 6.79132H2.78571H4.11485C4.15126 6.79132 4.16947 6.80952 4.18767 6.82773C4.20588 6.84594 4.20588 6.86415 4.20588 6.88235V8.17507C4.20588 8.21148 4.18767 8.22969 4.16947 8.2479C4.15126 8.26611 4.13305 8.28431 4.09664 8.28431H2.76751H0.67367ZM4.22409 12.3263C4.20588 12.3445 4.20588 12.381 4.18767 12.3992C4.16947 12.4174 4.15126 12.4356 4.11485 12.4356H0.67367C0.637255 12.4356 0.619048 12.4174 0.60084 12.3992C0.582633 12.381 0.564426 12.3445 0.564426 12.3263V11.0336C0.564426 10.9972 0.582633 10.979 0.60084 10.9608C0.619048 10.9426 0.637255 10.9426 0.67367 10.9426H2.78571H4.11485C4.15126 10.9426 4.16947 10.9608 4.18767 10.979C4.20588 10.9972 4.22409 11.0154 4.22409 11.0518V12.3263ZM4.11485 10.3782H2.78571C2.7493 10.3599 2.73109 10.3417 2.71289 10.3235C2.69468 10.3053 2.67647 10.2871 2.67647 10.2507V8.95798C2.67647 8.92157 2.69468 8.90336 2.71289 8.88515C2.73109 8.86695 2.7493 8.86695 2.78571 8.86695H4.11485H4.89776H6.22689C6.26331 8.86695 6.28151 8.88515 6.29972 8.90336C6.31793 8.92157 6.33613 8.93978 6.33613 8.97619V10.2689C6.33613 10.3053 6.31793 10.3235 6.29972 10.3417C6.28151 10.3599 6.26331 10.3782 6.22689 10.3782H4.89776H4.11485ZM8.44818 12.3263C8.42997 12.3445 8.41176 12.381 8.39356 12.3992C8.37535 12.4174 8.35714 12.4356 8.32073 12.4356H4.89776C4.86134 12.4356 4.84314 12.4174 4.82493 12.3992C4.80672 12.381 4.78852 12.3627 4.78852 12.3263V11.0336C4.78852 10.9972 4.80672 10.979 4.82493 10.9608C4.84314 10.9426 4.86134 10.9426 4.89776 10.9426H6.22689H7.0098H8.33894C8.37535 10.9426 8.39356 10.9608 8.41177 10.979C8.42997 10.9972 8.44818 11.0154 8.44818 11.0518V12.3263ZM8.32073 10.3599H6.9916C6.95518 10.3599 6.93698 10.3417 6.91877 10.3235C6.90056 10.3053 6.88235 10.2871 6.88235 10.2507V8.95798C6.88235 8.92157 6.90056 8.90336 6.91877 8.88515C6.93698 8.86695 6.95518 8.84874 6.9916 8.84874H8.32073H9.10364H10.4328C10.4692 8.86695 10.4874 8.86695 10.5056 8.88515C10.5238 8.90336 10.542 8.92157 10.542 8.95798V10.2507C10.542 10.2871 10.5238 10.3053 10.5056 10.3235C10.4874 10.3417 10.4692 10.3599 10.4328 10.3599H9.10364H8.32073ZM12.6541 12.3263C12.6541 12.3627 12.6359 12.381 12.6176 12.3992C12.5994 12.4174 12.5812 12.4356 12.5448 12.4356H9.10364C9.06723 12.4356 9.04902 12.4174 9.03081 12.3992C9.0126 12.381 8.9944 12.3627 8.9944 12.3263V11.0336C8.9944 10.9972 9.0126 10.979 9.03081 10.9608C9.04902 10.9426 9.06723 10.9426 9.10364 10.9426H10.4328H11.2157H12.5448C12.5812 10.9244 12.5994 10.9426 12.6176 10.9608C12.6359 10.979 12.6541 10.9972 12.6541 11.0336V12.3263ZM14.6751 8.84874C14.6933 8.86695 14.7115 8.86695 14.7297 8.88515C14.7479 8.90336 14.7661 8.92157 14.7661 8.95798V10.2507C14.7661 10.2871 14.7479 10.3053 14.7297 10.3235C14.7115 10.3417 14.6933 10.3599 14.6569 10.3599H12.5448H11.2157C11.1793 10.3599 11.1611 10.3417 11.1429 10.3235C11.1247 10.3053 11.1247 10.2689 11.1247 10.2507V8.95798C11.1247 8.92157 11.1429 8.90336 11.1611 8.88515C11.1793 8.86695 11.1975 8.84874 11.2339 8.84874H12.563H14.6751ZM12.5448 6.22689H11.2157C11.1793 6.22689 11.1611 6.20868 11.1429 6.19048C11.1247 6.15406 11.1247 6.13585 11.1247 6.11765V4.82493C11.1247 4.78852 11.1429 4.77031 11.1611 4.7521C11.1793 4.73389 11.1975 4.71569 11.2339 4.71569H12.563H14.6751C14.7115 4.71569 14.7297 4.73389 14.7479 4.7521C14.7661 4.77031 14.7843 4.78852 14.7843 4.82493V6.11765H14.7661C14.7661 6.15406 14.7479 6.17227 14.7297 6.19048C14.7115 6.20868 14.6933 6.22689 14.6569 6.22689H12.5448Z" fill="#004298"/>
</svg>
