<svg alt="Инстаграм Студия Ремонтов" width="24" height="24" fill="background: #333333" xmlns="http://www.w3.org/2000/svg"><path d="M17.4 0H6.6C3 0 0 3 0 6.6v10.8C0 21 3 24 6.6 24h10.8c3.7 0 6.6-3 6.6-6.6V6.6C24 3 21 0 17.4 0zm4.5 17.4c0 2.5-2 4.5-4.5 4.5H6.6c-2.5 0-4.5-2-4.5-4.5V6.6c0-2.5 2-4.5 4.5-4.5h10.8c2.5 0 4.5 2 4.5 4.5v10.8z"/><path d="M12 5.8c-3.4 0-6.2 2.8-6.2 6.2 0 3.4 2.8 6.2 6.2 6.2s6.2-2.8 6.2-6.2c0-3.4-2.8-6.2-6.2-6.2zm0 10.3c-2.2 0-4.1-1.8-4.1-4.1 0-2.2 1.8-4.1 4.1-4.1s4.1 1.8 4.1 4.1c0 2.2-1.9 4.1-4.1 4.1zM18.4 4c-.4 0-.8.2-1.1.5-.3.3-.5.7-.5 1.1 0 .4.2.8.5 1.1.3.3.7.4 1.1.4.4 0 .8-.2 1.1-.5.3-.2.5-.6.5-1s-.2-.8-.5-1.1c-.2-.3-.6-.5-1.1-.5z"/></svg>