<svg width="26" height="23" viewBox="0 0 26 23" fill="none" xmlns="http://www.w3.org/2000/svg">
<path fill-rule="evenodd" clip-rule="evenodd" d="M6.48485 22.7219H3.12965C2.79502 22.7217 2.46369 22.6557 2.15458 22.5275C1.84547 22.3993 1.56463 22.2115 1.3281 21.9748C1.09158 21.7381 0.90399 21.4571 0.776054 21.1479C0.648119 20.8387 0.58234 20.5073 0.582474 20.1726V12.0335C0.582474 11.358 0.850664 10.7102 1.3281 10.2323C1.80554 9.75453 2.45317 9.48582 3.12864 9.48528H6.48587C7.16134 9.48582 7.80896 9.75453 8.2864 10.2323C8.76384 10.7102 9.03203 11.358 9.03203 12.0335V20.1726C9.0323 20.8483 8.76423 21.4964 8.28676 21.9744C7.80929 22.4525 7.16151 22.7213 6.48587 22.7219H6.48485ZM6.48485 10.9558C6.77094 10.9558 7.04532 11.0694 7.24761 11.2717C7.44991 11.474 7.56356 11.7484 7.56356 12.0345V20.1737C7.56329 20.4596 7.44952 20.7337 7.24725 20.9358C7.04498 21.1378 6.77076 21.2514 6.48485 21.2514H3.12965C2.98813 21.2512 2.84802 21.2232 2.71732 21.1689C2.58662 21.1147 2.46789 21.0352 2.36791 20.935C2.26793 20.8348 2.18866 20.7159 2.13462 20.5851C2.08059 20.4543 2.05285 20.3142 2.05298 20.1726V12.0335C2.05325 11.7479 2.16674 11.4741 2.36857 11.2721C2.57039 11.0701 2.84409 10.9563 3.12965 10.9558H6.48688H6.48485ZM10.1118 19.7279C10.0985 19.673 10.1341 19.614 10.1341 19.557V10.2628C10.1341 10.161 10.1138 10.0592 10.1545 9.96459L10.2797 9.63589C10.4842 9.00087 11.0816 8.03309 12.0453 6.53409C12.7047 5.50932 13.3815 4.44892 13.5921 3.91567C13.9493 3.00895 13.9483 1.78573 13.9178 1.3919C13.9071 1.25606 13.9345 1.11994 13.9969 0.998795C14.0593 0.877651 14.1542 0.776267 14.2709 0.706002C14.332 0.669367 14.8906 0.345754 15.6111 0.345754C16.0599 0.34273 16.4992 0.474622 16.872 0.72432C17.8937 1.40411 19.0376 2.46654 18.8127 4.66365C18.7425 5.35667 18.4524 6.00695 18.1716 6.63585C17.9884 7.04902 17.8144 7.4398 17.7177 7.80819C17.6973 7.88349 17.6953 8.08702 17.6943 8.25799C18.4952 8.32719 19.3022 8.38825 20.0267 8.38825C20.4847 8.38825 20.8571 8.38418 21.1563 8.38113C21.5461 8.37706 21.8168 8.37502 22.0061 8.38113C22.1445 8.3852 22.2747 8.38927 22.3948 8.40453C22.7869 8.45584 23.1649 8.58443 23.5069 8.78288C23.849 8.98132 24.1482 9.24566 24.3874 9.56058C24.867 10.1888 25.0807 10.9802 24.9825 11.7644C24.8842 12.5486 24.482 13.2628 23.8623 13.7533C24.1318 14.25 24.2366 14.8194 24.1614 15.3795C24.0785 16.0247 23.7607 16.6166 23.269 17.0424C23.4348 17.4545 23.4928 17.8789 23.4369 18.3012C23.3545 18.905 23.0411 19.4532 22.5627 19.8307C22.6623 20.0802 22.7098 20.3474 22.7023 20.6159C22.6949 20.8844 22.6327 21.1485 22.5195 21.3921C22.4062 21.6357 22.2444 21.8536 22.044 22.0324C21.8435 22.2112 21.6086 22.3471 21.3537 22.4318C20.9223 22.6496 20.3768 22.6944 19.6502 22.6944C19.406 22.6944 19.1312 22.6893 18.829 22.6842C18.4108 22.6754 17.9925 22.6706 17.5742 22.67C16.9911 22.67 16.4436 22.6873 15.9134 22.7046C15.4658 22.7214 15.018 22.7312 14.5701 22.7341C12.7414 22.7341 10.7773 22.5021 10.1118 19.729V19.7279ZM14.6118 21.2646C15.0168 21.2646 15.4269 21.2503 15.8859 21.2351C16.4283 21.2178 16.9778 21.1984 17.5854 21.1984C18.0627 21.1984 18.4819 21.2066 18.8605 21.2137C19.1546 21.2198 19.4161 21.2239 19.6522 21.2239C19.8649 21.2239 20.5091 21.2239 20.7014 21.113C20.7513 21.0845 20.8032 21.0621 20.8582 21.0458C21.0159 20.999 21.1991 20.8535 21.2265 20.6459C21.245 20.5402 21.2279 20.4313 21.1777 20.3365C21.0189 20.079 20.9772 19.73 21.0627 19.4023C21.139 19.1123 21.3069 18.8812 21.539 18.751C21.7297 18.6457 21.8739 18.4727 21.9431 18.2661C22.0122 18.0595 22.0013 17.8345 21.9124 17.6356C21.7455 17.2662 21.7038 16.3778 22.2208 15.9972C22.4696 15.8154 22.6391 15.545 22.6944 15.2419C22.7497 14.9387 22.6865 14.6259 22.5179 14.368C22.1943 13.8744 22.3724 12.9972 22.8619 12.6614C23.119 12.4855 23.3167 12.2359 23.4291 11.9455C23.5414 11.655 23.5631 11.3373 23.4912 11.0342C23.4194 10.7312 23.2574 10.457 23.0266 10.2479C22.7958 10.0388 22.507 9.90453 22.1984 9.86283C22.1332 9.85506 22.0676 9.85166 22.002 9.85265L21.9501 9.85163C21.7771 9.84451 21.5227 9.84756 21.1706 9.85163C20.8663 9.85468 20.4887 9.85875 20.0267 9.85875C19.0925 9.85875 18.0739 9.76717 17.0888 9.68067L16.8669 9.66031C16.7695 9.65156 16.6747 9.62346 16.5883 9.57765C16.5018 9.53184 16.4254 9.46924 16.3634 9.39353C16.3014 9.31781 16.2552 9.2305 16.2274 9.13669C16.1995 9.04288 16.1907 8.94447 16.2014 8.84721C16.2217 8.662 16.2228 8.4605 16.2238 8.26715C16.2258 7.97 16.2278 7.69014 16.295 7.43268C16.4242 6.94827 16.6298 6.48524 16.8293 6.03646C17.0735 5.48896 17.3035 4.972 17.3503 4.51303C17.5009 3.03948 16.7937 2.43703 16.0579 1.94754C15.8593 1.82635 15.6216 1.78661 15.3944 1.83661C15.3893 2.46756 15.3191 3.52591 14.9517 4.45605C14.6871 5.12261 13.9982 6.19419 13.2695 7.32888C12.6111 8.35161 11.7929 9.62469 11.6515 10.104C11.6413 10.1335 11.6728 10.163 11.6606 10.1915L11.6036 10.4185V19.4674C11.971 21.0112 12.7963 21.2646 14.6118 21.2646Z" fill="white"/>
</svg>
