<svg width="70" height="71" viewBox="0 0 70 71" fill="none" xmlns="http://www.w3.org/2000/svg">
<g clip-path="url(#clip0_149_272)">
<path d="M37.6182 8.67604L37.8982 4.40058L37.6182 4.65224V8.67604ZM39.8554 13.58L39.7154 3.01784H39.4354V9.55616L39.8554 13.58ZM38.4561 10.6879L38.7361 3.89796H38.3161V7.41843L38.4561 10.6879ZM44.1919 24.2679L40.9754 1.88605L40.4161 2.01189L44.1919 24.2679ZM48.2449 19.364L42.6519 1.13177V0.754272L41.9519 1.00594L48.2449 19.364ZM47.9663 13.7058L43.6312 1.50926L43.0719 1.13177L47.9663 13.7058ZM48.6642 12.8257L44.7484 2.13701L44.1891 1.75952L48.6642 12.8243V12.8257ZM49.2256 11.9456L45.4491 2.51521L44.8891 2.13772L49.2249 11.9456H49.2256Z" fill="#A9A9A9"/>
<path d="M36.7779 4.77809L36.0786 11.5688H36.3586L37.4772 4.90392L42.3716 0.880119L45.5881 2.64036L64.7464 44.6386L46.0074 2.3901L41.9523 0L36.7779 4.77809Z" fill="#A9A9A9"/>
<path d="M28.2451 11.1913C29.5506 7.83811 32.1553 1.50224 33.6995 1.88606C35.2759 2.27762 35.411 2.35564 35.7967 3.89796C36.0711 4.9946 36.4498 7.29331 36.636 8.29856L36.076 11.6939" stroke="#C4C4C4"/>
<path d="M28.2451 11.1913C29.1313 8.34073 31.2383 2.76617 33.6995 2.76617C34.305 2.80835 35.6287 3.31941 36.0767 5.02974L36.636 8.17342L36.076 11.5688" stroke="#C4C4C4"/>
<path d="M28.8101 10.8138C29.6487 8.38293 31.7746 3.34475 33.5645 3.64632C33.9845 3.73068 35.0191 4.14965 35.8017 5.1556C35.8017 5.05507 36.3617 6.95801 36.641 7.92179L36.081 11.4423" stroke="#C4C4C4"/>
<path d="M29.3687 10.4363C30.0673 8.34148 31.8852 4.12365 34.1231 5.02978C34.5893 5.23927 35.5497 5.83468 35.661 6.53836C35.773 7.24273 36.1741 8.50878 36.361 9.05358L36.081 11.6939" stroke="#C4C4C4"/>
<path d="M30.0664 9.933C30.6726 7.9218 32.5556 4.27549 35.2408 7.29335L36.2194 10.6887L36.0794 11.5681" stroke="#C4C4C4"/>
<path d="M49.224 49.0392L27.4078 40.8658L26.9878 43.1293L49.224 49.0392ZM43.3524 33.5732L29.6478 27.4116L29.2285 29.4235L43.3524 33.5732ZM45.1661 39.6082L28.665 32.944L28.245 35.2076L45.1661 39.9857V39.6082ZM41.9531 28.1659L30.3464 22.1302L29.9264 24.5196L41.9524 28.4176V28.1659H41.9531ZM40.5531 22.8845L31.1836 17.478L30.7643 19.7415L40.5531 23.1369V22.8852V22.8845ZM39.4366 18.2322L31.885 13.4549L31.465 15.7184L39.4366 18.4846V18.2329V18.2322ZM8.67017 46.3981L27.2692 40.7399L26.8492 43.2552L10.6274 46.7756L2.09717 48.0333L8.67017 46.3981ZM38.7338 14.9634L32.3008 10.5628L32.0208 12.1972L38.8738 15.5919L38.7338 14.9634ZM6.85297 40.4883L28.3892 32.944L27.9692 35.3334L6.85297 40.489V40.4883ZM11.0481 35.7109L28.8078 27.4116L28.5278 29.6752L11.0481 35.7102V35.7109ZM13.2846 31.3096L29.5064 22.256L29.0864 24.7713L13.2846 31.3089V31.3096ZM18.7831 23.849L30.6152 13.58L30.4332 15.8527L18.7831 23.849ZM16.0804 27.5375L30.0643 17.7289L29.7843 20.1176L16.0804 27.5368V27.5375ZM20.2776 20.6216L31.1857 10.8138L30.9022 12.3224L20.2776 20.6216Z" fill="#A9A9A9"/>
<path d="M0 60.7331L23.2134 15.3402L31.4643 8.42438L38.8759 12.9515L39.2959 15.466L39.9945 15.5919L40.1345 18.6097L41.1131 18.9872L40.8331 23.3878H42.0924V28.2917L43.491 28.5434V33.5724L44.7496 34.0758L45.0296 39.3572L46.4275 40.2373V45.1412L37.8973 13.0766L32.4429 10.1846L24.892 57.5901L31.045 10.186L24.332 15.9701L0 60.7331Z" fill="#A9A9A9"/>
<path d="M34.8194 8.92771C32.6942 6.61423 31.2774 8.17342 30.9043 9.05354L35.2394 10.9396L34.8194 8.92771Z" stroke="#C4C4C4"/>
<path d="M16.9282 52.5787C16.9282 53.224 16.6482 53.7484 16.0882 54.1526C15.5282 54.5512 14.7428 54.7895 13.7341 54.8682V55.1593C13.7341 55.3589 13.7481 55.5037 13.7775 55.5923C13.8125 55.6816 13.8741 55.742 13.9616 55.773C14.0491 55.8046 14.1919 55.8257 14.39 55.8362V55.9937C14.075 55.9775 13.6347 55.9698 13.0691 55.9698C12.4447 55.9698 11.9841 55.9775 11.6859 55.9937V55.8362C11.8791 55.8257 12.0191 55.8046 12.1059 55.773C12.149 55.7604 12.1883 55.7373 12.2204 55.7058C12.2526 55.6743 12.2764 55.6353 12.29 55.5923C12.325 55.503 12.3425 55.3589 12.3425 55.1593V54.8682C11.2981 54.8001 10.5015 54.5744 9.95336 54.192C9.40526 53.8089 9.13086 53.2767 9.13086 52.5941C9.13086 51.9706 9.41086 51.4645 9.97086 51.0757C10.5309 50.6877 11.3219 50.4571 12.3425 50.3833V50.0923C12.3425 49.8933 12.325 49.7485 12.29 49.6599C12.2766 49.6169 12.2529 49.5778 12.2209 49.5462C12.1889 49.5146 12.1496 49.4913 12.1066 49.4786C12.0191 49.4469 11.8791 49.4266 11.6866 49.4153V49.2585C11.9841 49.274 12.4447 49.2817 13.0691 49.2817C13.6347 49.2817 14.075 49.2747 14.39 49.2585V49.416C14.1919 49.4266 14.0491 49.4469 13.9616 49.4793C13.9194 49.4937 13.881 49.5174 13.8491 49.5486C13.8172 49.5799 13.7928 49.6179 13.7775 49.6599C13.7488 49.7485 13.7341 49.8933 13.7341 50.0923V50.3833C14.7722 50.4466 15.5625 50.6645 16.105 51.0371C16.6538 51.404 16.9275 51.9179 16.9275 52.5787H16.9282ZM10.5834 52.5632C10.5834 53.224 10.7269 53.7273 11.0125 54.0739C11.3044 54.4198 11.7475 54.6377 12.3425 54.727V50.5176C11.7244 50.5963 11.275 50.8009 10.995 51.1313C10.7206 51.456 10.5834 51.9333 10.5834 52.5632ZM15.475 52.6103C15.475 51.9706 15.3322 51.4856 15.0466 51.1552C14.7603 50.8191 14.3228 50.609 13.7341 50.5253V54.7347C14.3466 54.6503 14.7897 54.438 15.0641 54.0971C15.3385 53.7512 15.475 53.2556 15.475 52.6103ZM22.1082 54.2152C22.1082 54.6981 22.1292 55.0967 22.1691 55.4116C21.5014 55.3921 20.8335 55.3842 20.1657 55.3877C18.8938 55.3877 17.9432 55.3955 17.3132 55.4116V55.2535C17.505 55.2429 17.645 55.2218 17.7332 55.1902C17.7761 55.1775 17.8154 55.1544 17.8473 55.1229C17.8793 55.0914 17.9031 55.0525 17.9166 55.0095C17.9516 54.9203 17.9691 54.7762 17.9691 54.5765V50.6736C17.9691 50.4747 17.9516 50.3306 17.9166 50.2413C17.9032 50.1983 17.8795 50.1592 17.8475 50.1275C17.8155 50.0959 17.7762 50.0727 17.7332 50.0599C17.6457 50.029 17.5057 50.0079 17.3132 49.9967V49.8406C17.9432 49.8561 18.8938 49.8645 20.1657 49.8645C21.0232 49.8645 21.6329 49.8561 21.9941 49.8406C21.9535 50.2764 21.9332 50.6645 21.9332 51.0054C21.9332 51.236 21.9416 51.4146 21.9591 51.5397H21.7582C21.6707 50.9787 21.5132 50.5858 21.2857 50.3601C21.0582 50.1344 20.7369 50.022 20.3232 50.022H19.9641C19.7835 50.022 19.6519 50.0346 19.5707 50.0606C19.5324 50.0716 19.4973 50.0916 19.4683 50.119C19.4393 50.1464 19.4173 50.1804 19.4041 50.2181C19.3754 50.2919 19.3607 50.4121 19.3607 50.5801V52.5316H19.6407C19.9494 52.5316 20.1832 52.4296 20.3407 52.2251C20.5038 52.0205 20.6179 51.7759 20.6816 51.4933H20.8832C20.8657 51.7133 20.8566 51.9601 20.8566 52.2328V52.6103C20.8566 52.8774 20.8741 53.25 20.9091 53.728H20.7082C20.5857 53.0349 20.2294 52.689 19.6407 52.689H19.3607V54.6714C19.3607 54.8401 19.3747 54.9631 19.4041 55.0412C19.4335 55.115 19.4888 55.1649 19.5707 55.1909C19.6519 55.2176 19.7835 55.2303 19.9641 55.2303H20.3932C20.8069 55.2303 21.1401 55.1044 21.3907 54.8528C21.6469 54.5955 21.8282 54.1632 21.9332 53.5544H22.1341C22.1166 53.7273 22.1082 53.9481 22.1082 54.2152ZM28.1443 55.2535C28.103 55.6366 28.0827 55.9775 28.0827 56.277C28.0827 56.4921 28.0918 56.6622 28.1093 56.7881H27.9077C27.8202 56.2847 27.6571 55.9283 27.4177 55.7181C27.179 55.5143 26.8465 55.4116 26.4202 55.4116H24.3027C23.8771 55.4116 23.5446 55.5136 23.3052 55.7181C23.0658 55.9283 22.9027 56.2847 22.8152 56.7881H22.6136C22.6336 56.6185 22.6425 56.4478 22.6402 56.277C22.6402 55.9782 22.6192 55.6373 22.5786 55.2542H22.7361C23.1386 55.2542 23.448 55.0468 23.6636 54.6321C23.8855 54.218 24.0374 53.7196 24.1186 53.1375C24.2068 52.5555 24.2824 51.7998 24.3468 50.8712L24.3643 50.6743C24.3755 50.4859 24.3643 50.3467 24.3293 50.2575C24.3158 50.2121 24.291 50.1709 24.2572 50.1379C24.2234 50.1049 24.1816 50.0812 24.1361 50.0691C24.0374 50.0318 23.8771 50.0086 23.6552 49.9981V49.8406C23.9002 49.8561 24.2012 49.8645 24.5568 49.8645C24.6436 49.8645 24.7752 49.8589 24.9502 49.8483L25.3268 49.8406L25.9127 49.8483C26.1808 49.8589 26.4027 49.8645 26.5777 49.8645C27.179 49.8645 27.6305 49.8561 27.9343 49.8406V49.9981C27.7243 50.0086 27.5696 50.0297 27.4702 50.0613C27.4264 50.0746 27.3863 50.0978 27.353 50.1292C27.3196 50.1605 27.2938 50.1991 27.2777 50.242C27.2427 50.3313 27.2252 50.4754 27.2252 50.6743V54.5772C27.2252 54.7769 27.2399 54.9238 27.2693 55.018C27.3043 55.1073 27.3652 55.1698 27.4527 55.2071C27.5465 55.238 27.6893 55.2542 27.8818 55.2542H28.1443V55.2535ZM25.8343 50.675C25.8343 50.4852 25.8133 50.3446 25.7727 50.2497C25.7595 50.2048 25.736 50.1637 25.7042 50.1295C25.6724 50.0953 25.633 50.0691 25.5893 50.0529C25.5074 50.0164 25.3877 49.9981 25.2302 49.9981H25.1168C24.9824 49.9981 24.8802 50.0164 24.8102 50.0529C24.7338 50.0972 24.6751 50.1668 24.6443 50.2497C24.6006 50.3877 24.5741 50.5305 24.5652 50.675L24.4952 51.4455C24.4427 52.1274 24.3846 52.6968 24.3202 53.1537C24.2604 53.5876 24.1488 54.0127 23.9877 54.4198C23.8302 54.8134 23.6083 55.0911 23.3227 55.2542H25.1252C25.3296 55.2542 25.4808 55.238 25.5802 55.2071C25.6256 55.1924 25.6673 55.1677 25.7022 55.1349C25.737 55.1021 25.7642 55.0619 25.7818 55.0173C25.8168 54.9238 25.8343 54.7769 25.8343 54.5772V50.6743V50.675ZM33.3621 54.2152C33.3621 54.6981 33.3831 55.0967 33.4237 55.4116C32.7558 55.3921 32.0877 55.3842 31.4196 55.3877C30.1484 55.3877 29.1971 55.3955 28.5671 55.4116V55.2535C28.7596 55.2429 28.8996 55.2218 28.9871 55.1902C29.0302 55.1776 29.0695 55.1545 29.1016 55.123C29.1338 55.0915 29.1576 55.0525 29.1712 55.0095C29.2062 54.9203 29.2237 54.7762 29.2237 54.5765V50.6736C29.2237 50.4747 29.2062 50.3306 29.1712 50.2413C29.1577 50.1982 29.1339 50.159 29.1018 50.1274C29.0697 50.0958 29.0303 50.0726 28.9871 50.0599C28.8996 50.029 28.7596 50.0079 28.5671 49.9967V49.8406C29.1971 49.8561 30.1484 49.8645 31.4196 49.8645C32.2778 49.8645 32.8868 49.8561 33.2487 49.8406C33.2081 50.2764 33.1878 50.6645 33.1878 51.0054C33.1878 51.236 33.1962 51.4146 33.2137 51.5397H33.0128C32.9253 50.9787 32.7678 50.5858 32.5403 50.3601C32.3128 50.1344 31.9915 50.022 31.5778 50.022H31.2187C31.0381 50.022 30.9065 50.0346 30.8246 50.0606C30.7864 50.0717 30.7515 50.0918 30.7226 50.1192C30.6937 50.1466 30.6718 50.1805 30.6587 50.2181C30.6293 50.2919 30.6146 50.4121 30.6146 50.5801V52.5316H30.8946C31.204 52.5316 31.4371 52.4296 31.5946 52.2251C31.7584 52.0205 31.8718 51.7759 31.9362 51.4933H32.1378C32.1196 51.7133 32.1112 51.9601 32.1112 52.2328V52.6103C32.1112 52.8774 32.1287 53.25 32.1637 53.728H31.9621C31.8403 53.0349 31.484 52.689 30.8946 52.689H30.6146V54.6714C30.6146 54.8401 30.6293 54.9631 30.6587 55.0412C30.6874 55.115 30.7427 55.1649 30.8246 55.1909C30.9065 55.2176 31.0381 55.2303 31.2187 55.2303H31.6478C32.0615 55.2303 32.394 55.1044 32.6453 54.8528C32.9015 54.5955 33.0828 54.1632 33.1878 53.5544H33.3887C33.3712 53.7273 33.3628 53.9481 33.3628 54.2152H33.3621ZM36.1607 53.1607V54.5301C36.1607 54.7396 36.1845 54.895 36.2307 54.9941C36.2832 55.089 36.3707 55.1515 36.4932 55.1832C36.622 55.2148 36.8229 55.2324 37.0973 55.238V55.4116C36.5635 55.3984 36.0296 55.3904 35.4957 55.3877C35.2045 55.3877 34.837 55.3934 34.3932 55.4032L34.1132 55.4116V55.2535C34.3057 55.2429 34.4457 55.2218 34.5332 55.1902C34.5763 55.1776 34.6156 55.1545 34.6477 55.123C34.6799 55.0915 34.7037 55.0525 34.7173 55.0095C34.7523 54.9203 34.7698 54.7762 34.7698 54.5765V50.6736C34.7698 50.4747 34.7523 50.3306 34.7173 50.2413C34.7038 50.1982 34.68 50.159 34.6479 50.1274C34.6158 50.0958 34.5764 50.0726 34.5332 50.0599C34.4457 50.029 34.3057 50.0079 34.1132 49.9967V49.8406C34.5562 49.8593 34.9997 49.8673 35.4432 49.8645L36.4148 49.8561C36.531 49.8511 36.6654 49.849 36.8173 49.849C37.6048 49.849 38.2054 49.9896 38.6198 50.2736C39.0342 50.5513 39.2414 50.9267 39.2414 51.3984C39.2414 51.6866 39.1595 51.965 38.9964 52.2328C38.8326 52.495 38.5554 52.715 38.1648 52.8936C37.7798 53.0722 37.266 53.1607 36.6248 53.1607H36.1607ZM36.7032 49.9974C36.5457 49.9974 36.4295 50.0163 36.3532 50.0536C36.3164 50.0746 36.2843 50.1028 36.2588 50.1367C36.2332 50.1705 36.2149 50.2092 36.2048 50.2504C36.1754 50.3439 36.1607 50.4859 36.1607 50.6743V53.004H36.5373C37.0098 53.004 37.3367 52.8676 37.5173 52.5941C37.6979 52.3221 37.7882 51.9523 37.7882 51.4849C37.7882 50.9759 37.7042 50.6012 37.5348 50.3601C37.3717 50.119 37.0938 49.9981 36.7032 49.9981V49.9974ZM44.2723 54.7502C44.3486 54.9238 44.4361 55.0496 44.5348 55.1283C44.6158 55.1994 44.7168 55.2434 44.8239 55.2542V55.4116C44.4739 55.3955 44.0301 55.3877 43.4939 55.3877C42.8989 55.3877 42.4551 55.3955 42.1639 55.4116V55.2535C42.3851 55.2429 42.5426 55.219 42.6364 55.1825C42.6789 55.1663 42.7153 55.1371 42.7404 55.099C42.7656 55.0609 42.7781 55.0158 42.7764 54.9702C42.7764 54.876 42.7414 54.7494 42.6714 54.5927L42.1464 53.302H40.2382L40.0107 53.8447C39.8476 54.2229 39.7657 54.5139 39.7657 54.7185C39.7657 54.9125 39.8301 55.0489 39.9582 55.1276C40.0926 55.2008 40.2879 55.2429 40.5448 55.2535V55.4109C40.1833 55.3958 39.8215 55.3879 39.4598 55.387C39.2379 55.3854 39.016 55.3934 38.7948 55.4109V55.2535C39.0804 55.2064 39.3317 54.9301 39.5473 54.4275L41.5423 49.8244C41.6067 49.8294 41.7089 49.8315 41.8489 49.8315C41.9889 49.8315 42.0876 49.8294 42.1464 49.8244L44.2723 54.7494V54.7502ZM42.0848 53.1453L41.2182 51.0209L40.3082 53.1453H42.0848ZM51.4739 49.9981C51.2758 50.0086 51.133 50.0297 51.0455 50.0613C51.0033 50.0757 50.9649 50.0994 50.933 50.1307C50.9011 50.162 50.8767 50.2 50.8614 50.242C50.8327 50.3313 50.818 50.4754 50.818 50.6743V54.5772C50.818 54.7769 50.832 54.9238 50.8614 55.018C50.8964 55.1073 50.958 55.1698 51.0455 55.2071C51.1386 55.238 51.2814 55.2542 51.4739 55.2542H51.7364C51.6958 55.6366 51.6755 55.9782 51.6755 56.277C51.6755 56.4921 51.6839 56.6622 51.7014 56.7881H51.5005C51.413 56.2847 51.2492 55.9283 51.0105 55.7181C50.7711 55.5143 50.4386 55.4116 50.013 55.4116H48.263L47.5714 55.4032C47.1951 55.394 46.8187 55.3889 46.4423 55.3877C45.8186 55.3877 45.3573 55.3955 45.0598 55.4116V55.2535C45.2523 55.2429 45.3923 55.2218 45.4798 55.1902C45.5229 55.1776 45.5622 55.1545 45.5943 55.123C45.6265 55.0915 45.6503 55.0525 45.6639 55.0095C45.6989 54.9203 45.7164 54.7762 45.7164 54.5765V50.6736C45.7164 50.4747 45.6989 50.3306 45.6639 50.2413C45.6504 50.1982 45.6266 50.159 45.5945 50.1274C45.5624 50.0958 45.523 50.0726 45.4798 50.0599C45.3923 50.029 45.2523 50.0079 45.0598 49.9967V49.8406C45.5203 49.8596 45.9813 49.8675 46.4423 49.8645C47.0086 49.8645 47.4489 49.8561 47.7639 49.8406V49.9981C47.5658 50.0086 47.423 50.0297 47.3355 50.0613C47.2933 50.0757 47.2549 50.0994 47.223 50.1307C47.1911 50.162 47.1667 50.2 47.1514 50.242C47.122 50.3313 47.1073 50.4754 47.1073 50.6743V54.5772C47.1073 54.7769 47.1248 54.9238 47.1598 55.018C47.1948 55.1073 47.262 55.1698 47.3614 55.2071C47.4608 55.238 47.612 55.2542 47.8164 55.2542H48.718C48.9217 55.2542 49.0736 55.238 49.173 55.2071C49.2183 55.1922 49.2598 55.1675 49.2945 55.1347C49.3292 55.1019 49.3563 55.0618 49.3739 55.0173C49.4089 54.9238 49.4264 54.7769 49.4264 54.5772V50.6743C49.4264 50.4754 49.4089 50.3313 49.3739 50.242C49.3605 50.199 49.3368 50.1599 49.3048 50.1282C49.2728 50.0966 49.2335 50.0734 49.1905 50.0606C49.103 50.0297 48.963 50.0086 48.7705 49.9974V49.8406C49.0792 49.8561 49.5195 49.8645 50.0914 49.8645C50.7158 49.8645 51.1764 49.8561 51.4739 49.8406V49.9981ZM58.7245 49.9981C58.5264 50.0086 58.3836 50.0297 58.2961 50.0613C58.2539 50.0757 58.2155 50.0994 58.1836 50.1307C58.1517 50.162 58.1273 50.2 58.112 50.242C58.0833 50.3313 58.0686 50.4754 58.0686 50.6743V54.5772C58.0686 54.7769 58.0826 54.921 58.112 55.0102C58.147 55.0995 58.2086 55.1593 58.2961 55.1909C58.3836 55.2225 58.5271 55.2436 58.7245 55.2542V55.4116C58.2639 55.3927 57.8029 55.3847 57.342 55.3877C56.7708 55.3877 56.3298 55.3955 56.0211 55.4116V55.2535C56.2136 55.2429 56.3536 55.2218 56.4411 55.1902C56.484 55.1775 56.5233 55.1544 56.5552 55.1229C56.5872 55.0914 56.611 55.0525 56.6245 55.0095C56.6595 54.9203 56.677 54.7762 56.677 54.5765V50.8951L54.1836 54.6799C54.1892 54.8422 54.2095 54.9631 54.2445 55.0412C54.2795 55.115 54.3411 55.1677 54.4286 55.1986C54.5161 55.2254 54.6526 55.2436 54.8395 55.2542V55.4116C54.5245 55.3955 54.0835 55.3877 53.5179 55.3877C52.8942 55.3877 52.4329 55.3955 52.1354 55.4116V55.2535C52.3279 55.2429 52.4679 55.2218 52.5554 55.1902C52.5985 55.1776 52.6378 55.1545 52.6699 55.123C52.7021 55.0915 52.7259 55.0525 52.7395 55.0095C52.7745 54.9203 52.792 54.7762 52.792 54.5765V50.6736C52.792 50.4747 52.7745 50.3306 52.7395 50.2413C52.726 50.1982 52.7022 50.159 52.6701 50.1274C52.638 50.0958 52.5986 50.0726 52.5554 50.0599C52.4679 50.029 52.3279 50.0079 52.1354 49.9967V49.8406C52.5959 49.8596 53.0569 49.8675 53.5179 49.8645C54.0842 49.8645 54.5245 49.8561 54.8395 49.8406V49.9981C54.6414 50.0086 54.4986 50.0297 54.4111 50.0613C54.3689 50.0757 54.3305 50.0994 54.2986 50.1307C54.2667 50.162 54.2423 50.2 54.227 50.242C54.1976 50.3313 54.1836 50.4754 54.1836 50.6743V54.341L56.677 50.5408C56.6714 50.3889 56.6483 50.2757 56.607 50.2026C56.5891 50.1658 56.5634 50.1333 56.5317 50.1074C56.5 50.0816 56.4631 50.063 56.4236 50.0529C56.2917 50.0202 56.1568 50.0019 56.0211 49.9981V49.8406C56.3242 49.8561 56.7645 49.8645 57.342 49.8645C57.9664 49.8645 58.427 49.8561 58.7245 49.8406V49.9981ZM64.8271 49.9981C64.6339 50.0086 64.4911 50.0297 64.398 50.0613C64.3558 50.0757 64.3174 50.0994 64.2855 50.1307C64.2536 50.162 64.2292 50.2 64.2139 50.242C64.1852 50.3313 64.1705 50.4754 64.1705 50.6743V54.5772C64.1705 54.7769 64.1845 54.921 64.2139 55.0102C64.2489 55.0995 64.3105 55.1593 64.398 55.1909C64.4855 55.2225 64.629 55.2436 64.8264 55.2542V55.4116C64.3658 55.3927 63.9048 55.3847 63.4439 55.3877C62.8783 55.3877 62.438 55.3955 62.123 55.4116V55.2535C62.3155 55.2429 62.4555 55.2218 62.543 55.1902C62.5859 55.1775 62.6252 55.1544 62.6571 55.1229C62.6891 55.0914 62.7129 55.0525 62.7264 55.0095C62.7614 54.9203 62.7789 54.7762 62.7789 54.5765V52.7671H62.1405C61.8892 52.7671 61.7086 52.8585 61.598 53.0426C61.4867 53.2254 61.3964 53.5066 61.3264 53.8841L61.1689 54.6714C61.1045 54.9807 60.9764 55.2008 60.7839 55.3322C60.5914 55.458 60.3289 55.5206 59.9964 55.5206C59.7458 55.5206 59.5274 55.484 59.3398 55.4109C59.1509 55.337 58.9827 55.2181 58.8498 55.0644L58.9723 54.9702C59.0367 55.0334 59.092 55.0777 59.1389 55.1037C59.1914 55.1298 59.2523 55.1459 59.3223 55.1508C59.4336 55.1508 59.5183 55.1087 59.5764 55.025C59.6408 54.9407 59.6933 54.7944 59.7339 54.5843L59.918 53.7737C59.988 53.449 60.1539 53.2128 60.4164 53.0658C60.6789 52.914 61.0695 52.8057 61.5889 52.7432L61.633 52.7354C60.933 52.6672 60.4339 52.5021 60.1364 52.2398C59.8445 51.9727 59.6989 51.6472 59.6989 51.2641C59.6989 50.8072 59.8998 50.4592 60.3023 50.2174C60.7111 49.9714 61.3173 49.8476 62.1223 49.8476C62.2686 49.8476 62.3967 49.8504 62.5073 49.8554L63.4964 49.8638C64.0858 49.8638 64.5289 49.8554 64.8264 49.8399V49.9974L64.8271 49.9981ZM61.1521 51.2803C61.1521 51.7056 61.2389 52.0332 61.4139 52.2644C61.5952 52.495 61.9249 52.6103 62.403 52.6103H62.7789V50.6743C62.7789 50.4859 62.7649 50.3439 62.7355 50.2497C62.7247 50.2075 62.7051 50.1681 62.6779 50.1342C62.6508 50.1002 62.6167 50.0725 62.578 50.0529C62.5017 50.0164 62.3883 49.9981 62.2364 49.9981C61.8514 49.9981 61.5742 50.1084 61.4055 50.3285C61.2361 50.5436 61.1514 50.8606 61.1514 51.2803H61.1521ZM17.3013 62.0125V63.3819C17.3013 63.5914 17.3244 63.7468 17.3713 63.8459C17.4238 63.9408 17.5113 64.0033 17.6338 64.035C17.7619 64.0666 17.9628 64.0842 18.2372 64.0898V64.2627C17.7034 64.2497 17.1695 64.242 16.6356 64.2395C16.3444 64.2395 15.9769 64.2445 15.5331 64.255L15.2531 64.2627V64.106C15.4456 64.0954 15.5856 64.0743 15.6731 64.0427C15.7162 64.0301 15.7555 64.0071 15.7876 63.9755C15.8198 63.944 15.8436 63.905 15.8572 63.8621C15.8922 63.7728 15.9097 63.6287 15.9097 63.429V59.5261C15.9097 59.3272 15.8922 59.1831 15.8572 59.0938C15.8437 59.0507 15.8199 59.0116 15.7878 58.9799C15.7557 58.9483 15.7163 58.9251 15.6731 58.9124C15.5856 58.8815 15.4456 58.8604 15.2531 58.8492V58.6924C15.6961 58.7111 16.1396 58.7191 16.5831 58.7163L17.5547 58.7079C17.6716 58.703 17.8053 58.7008 17.9572 58.7008C18.7447 58.7008 19.346 58.8414 19.7597 59.1254C20.1741 59.4031 20.3813 59.7785 20.3813 60.2502C20.3813 60.5384 20.2994 60.8168 20.1363 61.0846C19.9732 61.3468 19.6953 61.5669 19.3047 61.7454C18.9197 61.924 18.4066 62.0125 17.7647 62.0125H17.3013ZM17.8438 58.8492C17.6863 58.8492 17.5694 58.8681 17.4938 58.9054C17.457 58.9262 17.4248 58.9544 17.3991 58.9881C17.3735 59.0218 17.355 59.0604 17.3447 59.1015C17.3153 59.1957 17.3013 59.3377 17.3013 59.5261V61.8558H17.6772C18.1497 61.8558 18.4766 61.7187 18.6572 61.4459C18.8385 61.1732 18.9288 60.8034 18.9288 60.3367C18.9288 59.8277 18.8441 59.453 18.6747 59.2119C18.5116 58.9708 18.2344 58.8499 17.8438 58.8499V58.8492ZM25.6117 63.067C25.6117 63.5499 25.6327 63.9485 25.6733 64.2627C25.0054 64.2435 24.3373 64.2357 23.6692 64.2395C22.3973 64.2395 21.4467 64.2473 20.8167 64.2634V64.106C21.0092 64.0954 21.1492 64.0743 21.2367 64.0427C21.2796 64.03 21.3189 64.0069 21.3508 63.9754C21.3828 63.9439 21.4066 63.905 21.4201 63.8621C21.4551 63.7728 21.4726 63.6287 21.4726 63.429V59.5261C21.4726 59.3272 21.4551 59.1831 21.4201 59.0938C21.4067 59.0508 21.383 59.0117 21.351 58.9801C21.319 58.9484 21.2797 58.9252 21.2367 58.9124C21.1492 58.8815 21.0092 58.8604 20.8167 58.8492V58.6924C21.4467 58.7079 22.3973 58.7163 23.6692 58.7163C24.5267 58.7163 25.1364 58.7079 25.4983 58.6924C25.457 59.1282 25.4367 59.5156 25.4367 59.8565C25.4367 60.0878 25.4458 60.2664 25.4633 60.3922H25.2617C25.1742 59.8305 25.0167 59.4376 24.7892 59.2112C24.5617 58.9863 24.2411 58.8738 23.8267 58.8738H23.4676C23.287 58.8738 23.1561 58.8864 23.0742 58.9124C23.0359 58.9234 23.0007 58.9434 22.9717 58.9708C22.9427 58.9982 22.9207 59.0322 22.9076 59.0699C22.8789 59.1437 22.8642 59.2639 22.8642 59.4319V61.3834H23.1442C23.4536 61.3834 23.6867 61.2807 23.8442 61.0762C24.0073 60.8723 24.1214 60.6277 24.1851 60.3451H24.3867C24.3692 60.5651 24.3601 60.8119 24.3601 61.0846V61.4621C24.3601 61.7292 24.3783 62.1018 24.4133 62.5798H24.2117C24.0892 61.8867 23.7336 61.5408 23.1442 61.5408H22.8642V63.5232C22.8642 63.6919 22.8782 63.8142 22.9076 63.893C22.937 63.9668 22.9923 64.0167 23.0742 64.0427C23.1561 64.0687 23.287 64.0821 23.4676 64.0821H23.8967C24.3111 64.0821 24.6436 63.9562 24.8942 63.7046C25.1511 63.4473 25.3317 63.015 25.4367 62.4062H25.6383C25.6208 62.5791 25.6117 62.7999 25.6117 63.067ZM33.8878 58.8499C33.6897 58.8604 33.5469 58.8815 33.4594 58.9131C33.4172 58.9275 33.3788 58.9512 33.3469 58.9825C33.315 59.0138 33.2906 59.0518 33.2753 59.0938C33.2466 59.1831 33.2319 59.3272 33.2319 59.5261V63.429C33.2319 63.6287 33.2459 63.7728 33.2753 63.8621C33.3103 63.9506 33.3719 64.0111 33.4594 64.0427C33.5525 64.0743 33.6953 64.0954 33.8878 64.106V64.2634C33.4302 64.245 32.9723 64.2371 32.5144 64.2395C31.89 64.2395 31.4294 64.2473 31.1319 64.2634V64.106C31.3419 64.0954 31.4931 64.0743 31.5869 64.0427C31.6321 64.0304 31.6738 64.0077 31.7086 63.9763C31.7435 63.9449 31.7706 63.9058 31.7878 63.8621C31.8228 63.7728 31.8403 63.6287 31.8403 63.429V59.3138L29.7312 64.2712H29.5912L27.2287 59.2035V62.9728C27.2287 63.2821 27.2462 63.5106 27.2812 63.6575C27.3162 63.7988 27.3925 63.9035 27.5087 63.9717C27.6256 64.035 27.8153 64.0793 28.0778 64.1053V64.2634C27.7631 64.2452 27.4479 64.2373 27.1328 64.2395C26.8115 64.2395 26.5581 64.2473 26.3712 64.2634V64.106C26.5637 64.0793 26.7037 64.035 26.7912 63.9724C26.8843 63.9091 26.9452 63.8093 26.9753 63.673C27.0103 63.5366 27.0278 63.3348 27.0278 63.067V59.5261C27.0278 59.3272 27.0103 59.1831 26.9753 59.0938C26.9618 59.0507 26.938 59.0116 26.9059 58.9799C26.8738 58.9483 26.8344 58.9251 26.7912 58.9124C26.7037 58.8815 26.5637 58.8604 26.3712 58.8492V58.6924C26.5581 58.7079 26.8122 58.7163 27.1328 58.7163C27.669 58.7163 28.1303 58.7079 28.5153 58.6924L30.2828 62.5236L31.8928 58.7163H32.5144C33.1094 58.7163 33.5672 58.7079 33.8878 58.6924V58.8499ZM37.5803 58.582C38.1984 58.582 38.7381 58.6945 39.1994 58.9209C39.6656 59.1458 40.0275 59.4741 40.2844 59.9043C40.5406 60.3289 40.6694 60.8379 40.6694 61.4305C40.6694 62.0069 40.5378 62.5187 40.2753 62.9651C40.0139 63.4097 39.6314 63.7699 39.1728 64.0033C38.7059 64.2494 38.1718 64.3731 37.5712 64.3731C36.9531 64.3731 36.4106 64.2606 35.9437 64.035C35.4976 63.8226 35.1235 63.4833 34.8678 63.0593C34.6109 62.629 34.4828 62.1173 34.4828 61.5247C34.4828 60.9482 34.6137 60.4365 34.8762 59.9908C35.1358 59.5476 35.5151 59.1873 35.9703 58.9518C36.4428 58.7058 36.979 58.582 37.5803 58.582ZM37.5453 58.724C37.2247 58.724 36.9412 58.8421 36.6962 59.0776C36.4512 59.3089 36.2622 59.6337 36.1278 60.0534C35.999 60.473 35.9353 60.9532 35.9353 61.4937C35.9353 62.0392 36.0081 62.5187 36.1537 62.9334C36.3056 63.3482 36.5072 63.668 36.7578 63.893C37.014 64.1186 37.2968 64.2318 37.6062 64.2318C37.9236 64.2332 38.2288 64.1087 38.4553 63.8852C38.7003 63.649 38.8872 63.3215 39.0153 62.9018C39.1497 62.4821 39.2169 62.002 39.2169 61.4621C39.2169 60.9166 39.1406 60.4365 38.9894 60.0224C38.8431 59.6077 38.6422 59.2878 38.3853 59.0622C38.1347 58.8372 37.8547 58.724 37.5453 58.724ZM47.6883 58.8499C47.4902 58.8604 47.3474 58.8815 47.2599 58.9131C47.2177 58.9275 47.1793 58.9512 47.1474 58.9825C47.1155 59.0138 47.0911 59.0518 47.0758 59.0938C47.0471 59.1831 47.0324 59.3272 47.0324 59.5261V63.429C47.0324 63.6287 47.0464 63.7728 47.0758 63.8621C47.1108 63.9506 47.1724 64.0111 47.2599 64.0427C47.3474 64.0743 47.4902 64.0954 47.6883 64.106V64.2634C47.2452 64.2445 46.8017 64.2365 46.3583 64.2395C45.7696 64.2395 45.3111 64.2473 44.9849 64.2634V64.106C45.1774 64.0954 45.3174 64.0743 45.4049 64.0427C45.4478 64.03 45.4871 64.0069 45.519 63.9754C45.551 63.9439 45.5748 63.905 45.5883 63.8621C45.6233 63.7728 45.6408 63.6287 45.6408 63.429V61.5408H43.3217V63.429C43.3217 63.6287 43.3364 63.7728 43.3658 63.8621C43.4008 63.9506 43.4617 64.0111 43.5492 64.0427C43.6367 64.0743 43.7802 64.0954 43.9783 64.106V64.2634C43.6633 64.2473 43.2223 64.2395 42.6567 64.2395C42.033 64.2395 41.5717 64.2473 41.2742 64.2634V64.106C41.4667 64.0954 41.6067 64.0743 41.6942 64.0427C41.7373 64.0301 41.7766 64.0071 41.8087 63.9755C41.8409 63.944 41.8647 63.905 41.8783 63.8621C41.9133 63.7728 41.9308 63.6287 41.9308 63.429V59.5261C41.9308 59.3272 41.9133 59.1831 41.8783 59.0938C41.8648 59.0507 41.841 59.0116 41.8089 58.9799C41.7768 58.9483 41.7374 58.9251 41.6942 58.9124C41.6067 58.8815 41.4667 58.8604 41.2742 58.8492V58.6924C41.7347 58.7114 42.1957 58.7193 42.6567 58.7163C43.223 58.7163 43.6633 58.7079 43.9783 58.6924V58.8499C43.7802 58.8604 43.6367 58.8815 43.5492 58.9131C43.5071 58.9276 43.4688 58.9514 43.4371 58.9826C43.4054 59.0139 43.381 59.0519 43.3658 59.0938C43.3364 59.1831 43.3217 59.3272 43.3217 59.5261V61.3834H45.6408V59.5261C45.6408 59.3272 45.6233 59.1831 45.5883 59.0938C45.5749 59.0508 45.5512 59.0117 45.5192 58.9801C45.4872 58.9484 45.4479 58.9252 45.4049 58.9124C45.3174 58.8815 45.1774 58.8604 44.9849 58.8492V58.6924C45.3111 58.7079 45.7689 58.7163 46.3583 58.7163C46.9596 58.7163 47.4027 58.7079 47.6883 58.6924V58.8499ZM53.5935 58.6924C53.5549 59.1373 53.5344 59.5836 53.5319 60.0302C53.5319 60.2762 53.541 60.4758 53.5585 60.6277H53.3569C53.2169 59.9831 53.0244 59.5289 52.7794 59.2667C52.5407 59.0045 52.211 58.8731 51.791 58.8731H51.5894V63.3665C51.5894 63.5865 51.6132 63.7461 51.6594 63.8459C51.7119 63.9457 51.7994 64.0146 51.9219 64.0504C52.0507 64.0821 52.2516 64.1004 52.526 64.106V64.2634C51.791 64.2473 51.2366 64.2395 50.8635 64.2395C50.496 64.2395 49.9619 64.2473 49.2619 64.2634V64.106C49.5363 64.1004 49.7344 64.0821 49.8569 64.0504C49.985 64.0139 50.0725 63.9457 50.1194 63.8466C50.1719 63.7468 50.1985 63.5865 50.1985 63.3665V58.8731H50.006C49.726 58.8731 49.4866 58.9286 49.2885 59.039C49.0953 59.1486 48.9294 59.3321 48.7894 59.5894C48.6494 59.8411 48.5304 60.1869 48.4303 60.6277H48.2301C48.2476 60.4758 48.256 60.2762 48.256 60.0302C48.256 59.6365 48.2357 59.1908 48.1951 58.6924C48.7257 58.7079 49.6273 58.7163 50.8992 58.7163C52.1704 58.7163 53.0692 58.7079 53.5942 58.6924H53.5935ZM58.6629 63.6019C58.7392 63.7749 58.8267 63.9014 58.9254 63.9801C59.0248 64.0589 59.1214 64.1004 59.2145 64.106V64.2634C58.8645 64.2473 58.4207 64.2395 57.8845 64.2395C57.2895 64.2395 56.8457 64.2473 56.5545 64.2634V64.106C56.7757 64.0954 56.9332 64.0715 57.027 64.035C57.1201 63.9928 57.167 63.9225 57.167 63.8227C57.167 63.7278 57.132 63.602 57.062 63.4445L56.537 62.1545H54.6281L54.4006 62.6972C54.2375 63.0747 54.1556 63.3665 54.1556 63.571C54.1556 63.765 54.22 63.9014 54.3481 63.9801C54.4825 64.0533 54.6778 64.0954 54.9347 64.106V64.2634C54.5732 64.2484 54.2114 64.2404 53.8497 64.2395C53.6278 64.2379 53.4059 64.2459 53.1847 64.2634V64.106C53.4703 64.0589 53.7216 63.7826 53.9372 63.2793L55.9322 58.6769C55.9966 58.6819 56.0988 58.684 56.2388 58.684C56.3788 58.684 56.4775 58.6819 56.5363 58.6769L58.6622 63.6019H58.6629ZM56.4754 61.9971L55.6095 59.8727L54.6995 61.9971H56.4754Z" fill="#073EA3"/>
<path d="M4.87919 69.497C4.53759 69.497 4.27299 69.3937 4.08469 69.1863C3.89849 68.9782 3.80469 68.6837 3.80469 68.3041C3.80469 67.914 3.89989 67.6124 4.08959 67.3994C4.27999 67.1871 4.55159 67.0802 4.90299 67.0802C5.01639 67.0802 5.12979 67.0929 5.24319 67.1168C5.35659 67.1407 5.44619 67.1695 5.51059 67.2011L5.40069 67.502C5.31665 67.469 5.23001 67.4432 5.14169 67.4247C5.06073 67.4051 4.97786 67.3944 4.89459 67.3931C4.41509 67.3931 4.17569 67.6953 4.17569 68.2999C4.17569 68.586 4.23379 68.806 4.34999 68.9593C4.46759 69.1118 4.64119 69.1884 4.87079 69.1884C5.06749 69.1884 5.26979 69.1463 5.47629 69.0633V69.3761C5.31809 69.457 5.11929 69.497 4.87989 69.497H4.87919ZM8.35679 67.4254H7.59029V69.4549H7.23329V67.4254H6.47519V67.1231H8.35679V67.4254ZM10.65 69.497C10.496 69.497 10.356 69.4689 10.2279 69.4141C10.1011 69.3569 9.99131 69.2675 9.90939 69.1547H9.88349C9.90099 69.2911 9.90939 69.4197 9.90939 69.5413V70.5016H9.55239V67.1231H9.84289L9.89189 67.4423H9.90939C9.9906 67.3238 10.1011 67.2286 10.23 67.166C10.3525 67.109 10.4925 67.0802 10.65 67.0802C10.9629 67.0802 11.2044 67.1857 11.3738 67.3973C11.5446 67.6082 11.63 67.9055 11.63 68.2865C11.63 68.6696 11.5432 68.9677 11.3696 69.18C11.1974 69.3909 10.9573 69.497 10.65 69.497ZM10.5982 67.3811C10.3574 67.3811 10.1831 67.4465 10.0753 67.5779C9.96749 67.7101 9.91219 67.9203 9.90939 68.2078V68.2865C9.90939 68.6141 9.96539 68.8489 10.0753 68.9909C10.1859 69.1315 10.363 69.2018 10.6073 69.2018C10.7011 69.2051 10.7942 69.1844 10.8779 69.1416C10.9615 69.0988 11.0329 69.0353 11.0854 68.9572C11.2016 68.7941 11.2597 68.5691 11.2597 68.2823C11.2597 67.992 11.2016 67.7691 11.0847 67.6145C10.9706 67.4584 10.8082 67.3804 10.5982 67.3804V67.3811ZM15.0215 68.2865C15.0215 68.6668 14.9242 68.9642 14.731 69.1779C14.5371 69.3909 14.269 69.497 13.9274 69.497C13.7167 69.497 13.5291 69.4478 13.3653 69.3501C13.2003 69.2506 13.0684 69.104 12.9866 68.929C12.8939 68.7279 12.8484 68.5081 12.8536 68.2865C12.8536 67.9069 12.9495 67.611 13.1413 67.3994C13.3338 67.1871 13.6012 67.0802 13.9428 67.0802C14.2725 67.0802 14.535 67.1892 14.7289 67.4057C14.9235 67.6236 15.0215 67.9168 15.0215 68.2865ZM13.2232 68.2865C13.2232 68.5846 13.2834 68.8116 13.4045 68.9677C13.5249 69.1238 13.702 69.2018 13.9365 69.2018C14.1703 69.2018 14.3474 69.1245 14.4685 68.9698C14.5903 68.8138 14.6505 68.586 14.6505 68.2865C14.6505 67.9906 14.5903 67.7656 14.4685 67.6124C14.3474 67.4577 14.1689 67.3804 13.9316 67.3804C13.6978 67.3804 13.5214 67.4563 13.4017 67.6082C13.2827 67.76 13.2232 67.9864 13.2232 68.2865ZM16.7141 67.1231V68.6015L16.6987 68.9881L16.6917 69.1097L17.9692 67.1231H18.4151V69.4549H18.0812V68.0292L18.0882 67.7481L18.0987 67.4718L16.8233 69.4542H16.3781V67.1231H16.7141ZM21.4916 67.4254H20.7251V69.4549H20.3681V67.4254H19.61V67.1231H21.4916V67.4254ZM23.684 69.497C23.3347 69.497 23.0596 69.3916 22.8573 69.1821C22.6557 68.9726 22.5556 68.6809 22.5556 68.3083C22.5556 67.9322 22.6487 67.6335 22.8356 67.412C23.0232 67.1913 23.2752 67.0802 23.5916 67.0802C23.887 67.0802 24.1208 67.1772 24.293 67.3699C24.4652 67.5611 24.552 67.8148 24.552 68.1291V68.3526H22.9252C22.9322 68.6268 23.0022 68.8341 23.1338 68.9761C23.2675 69.1181 23.4551 69.1884 23.6959 69.1884C23.95 69.1884 24.2013 69.1364 24.4498 69.031V69.3459C24.3238 69.4 24.2034 69.438 24.09 69.4612C23.978 69.4851 23.8422 69.497 23.6833 69.497H23.684ZM23.5867 67.3762C23.3977 67.3762 23.2458 67.4373 23.1324 67.559C23.0204 67.6813 22.9546 67.85 22.9343 68.0651H24.1684C24.1684 67.8429 24.118 67.6728 24.0179 67.5547C23.9171 67.4352 23.7729 67.3762 23.5867 67.3762ZM27.6502 69.4549H27.2883V67.4254H26.5799C26.5414 67.9301 26.4875 68.3308 26.4189 68.6275C26.3489 68.9234 26.26 69.1406 26.1494 69.2777C26.101 69.343 26.0379 69.3957 25.9653 69.4317C25.8926 69.4676 25.8125 69.4857 25.7315 69.4844C25.6689 69.4866 25.6064 69.478 25.5467 69.4591V69.1969C25.5817 69.206 25.6177 69.2105 25.6538 69.2102C25.819 69.2102 25.9506 69.038 26.0479 68.6928C26.1459 68.3484 26.2194 67.8254 26.2698 67.1231H27.6502V69.4549ZM29.4954 68.0869H30.2234C30.8261 68.0869 31.1278 68.3062 31.1278 68.7442C31.1278 68.974 31.0487 69.1498 30.8905 69.2714C30.7344 69.3937 30.5048 69.4542 30.2017 69.4542H29.1377V67.1231H29.4954V68.0862V68.0869ZM29.4954 68.3913V69.1589H30.1842C30.3739 69.1589 30.5188 69.1266 30.6196 69.0605C30.6685 69.0291 30.7082 68.9853 30.7347 68.9334C30.7611 68.8815 30.7734 68.8234 30.7701 68.7652C30.7701 68.6366 30.7239 68.5417 30.6301 68.4827C30.5384 68.4215 30.3858 68.3913 30.1737 68.3913H29.4954ZM32.833 67.1231V68.0995H34.1553V67.1231H34.5123V69.4549H34.1553V68.4039H32.8323V69.4549H32.4753V67.1231H32.8323H32.833ZM37.4502 69.4549L37.3788 69.1231H37.3613C37.2437 69.2686 37.1261 69.3684 37.0078 69.4204C36.869 69.4759 36.7203 69.5022 36.571 69.4977C36.3372 69.4977 36.1531 69.4373 36.0194 69.3185C35.8878 69.199 35.8213 69.0303 35.8213 68.8102C35.8213 68.3392 36.2028 68.0925 36.9651 68.07L37.3655 68.0574V67.9125C37.3655 67.7298 37.3256 67.5948 37.2451 67.5083C37.166 67.4205 37.0393 67.3762 36.8636 67.3762C36.6676 67.3762 36.4443 67.4359 36.1965 67.5547L36.0866 67.2848C36.3325 67.1533 36.6067 67.0845 36.8853 67.0844C37.1667 67.0844 37.3753 67.1463 37.5097 67.27C37.6462 67.3931 37.7141 67.5913 37.7141 67.8633V69.4549H37.4502ZM36.6424 69.206C36.8643 69.206 37.0393 69.1456 37.1653 69.0246C37.2934 68.9044 37.3571 68.7357 37.3571 68.5185V68.3076L37.0001 68.3231C36.7152 68.3329 36.5101 68.3765 36.3841 68.4545C36.2588 68.5319 36.1965 68.6514 36.1965 68.8145C36.1965 68.9417 36.235 69.0394 36.3127 69.1055C36.3918 69.1723 36.5017 69.206 36.6417 69.206H36.6424ZM39.2989 69.4549H38.8817L39.56 68.4693C39.378 68.4299 39.238 68.3533 39.14 68.2401C39.0414 68.1183 38.9901 67.9647 38.9958 67.8078C38.9958 67.5955 39.0679 67.4282 39.2128 67.3059C39.3577 67.1843 39.5607 67.1231 39.8204 67.1231H40.8711V69.4549H40.5141V68.5227H39.917L39.2989 69.4549ZM39.3444 67.812C39.3444 68.082 39.5425 68.2162 39.9387 68.2162H40.5134V67.4289H39.8652C39.518 67.4289 39.3444 67.5568 39.3444 67.812ZM45.608 67.1231H46L44.9815 68.2479L46.084 69.4549H45.6661L44.5895 68.2739V69.4549H44.2325V67.1231H44.5895V68.257L45.608 67.1231ZM49.2879 68.2865C49.2879 68.6668 49.1913 68.9642 48.9974 69.1779C48.8035 69.3909 48.5354 69.497 48.1945 69.497C47.9831 69.497 47.7955 69.4478 47.6324 69.3501C47.4671 69.2507 47.335 69.1041 47.253 68.929C47.1603 68.7279 47.1148 68.5081 47.12 68.2865C47.12 67.9069 47.2159 67.611 47.4084 67.3994C47.6009 67.1871 47.8676 67.0802 48.2092 67.0802C48.5396 67.0802 48.8014 67.1892 48.9953 67.4057C49.1906 67.6236 49.2879 67.9168 49.2879 68.2865ZM47.4903 68.2865C47.4903 68.5846 47.5505 68.8116 47.6709 68.9677C47.7913 69.1238 47.9684 69.2018 48.2029 69.2018C48.4367 69.2018 48.6138 69.1245 48.7349 68.9698C48.8567 68.8138 48.9176 68.586 48.9176 68.2865C48.9176 67.9906 48.8567 67.7656 48.7349 67.6124C48.6138 67.4577 48.4353 67.3804 48.1987 67.3804C47.9642 67.3804 47.7878 67.4563 47.6688 67.6082C47.5498 67.76 47.4903 67.9864 47.4903 68.2865ZM51.8702 69.1139L51.9367 68.9164L52.0291 68.6654L52.6689 67.1273H53.1232V69.4542H52.8068V67.5294L52.7634 67.6524L52.6388 67.9779L52.0291 69.4542H51.7295L51.1205 67.9737C51.0599 67.8286 51.0074 67.6803 50.963 67.5294V69.4549H50.6445V67.1266H51.0813L51.6994 68.605C51.7617 68.761 51.8184 68.9304 51.8695 69.1139H51.8702ZM54.9726 69.4549H54.6156V67.1231H56.5966V69.4549H56.2347V67.4289H54.9726V69.4535V69.4549ZM59.5331 69.4549L59.4624 69.1231H59.4449C59.3273 69.2686 59.2097 69.3684 59.0921 69.4204C58.9531 69.476 58.8042 69.5023 58.6546 69.4977C58.4208 69.4977 58.2367 69.4373 58.1037 69.3185C57.9707 69.199 57.9056 69.0303 57.9056 68.8102C57.9056 68.3392 58.2864 68.0925 59.0487 68.07L59.4491 68.0574V67.9125C59.4491 67.7298 59.4092 67.5948 59.3287 67.5083C59.2496 67.4205 59.1229 67.3762 58.9479 67.3762C58.7512 67.3762 58.5279 67.4359 58.2801 67.5547L58.1702 67.2848C58.4161 67.1534 58.6903 67.0846 58.9689 67.0844C59.2503 67.0844 59.4589 67.1463 59.5933 67.27C59.7298 67.3931 59.7984 67.5913 59.7984 67.8633V69.4549H59.5331ZM58.726 69.206C58.9479 69.206 59.1229 69.1456 59.2489 69.0246C59.377 68.9044 59.4407 68.7357 59.4407 68.5185V68.3076L59.0837 68.3231C58.7988 68.3329 58.5937 68.3765 58.4677 68.4545C58.3424 68.5319 58.2801 68.6514 58.2801 68.8145C58.2801 68.9417 58.3186 69.0394 58.3963 69.1055C58.4754 69.1723 58.5853 69.206 58.7253 69.206H58.726ZM61.6212 67.1231V68.0995H62.9442V67.1231H63.3012V69.4549H62.9442V68.4039H61.6212V69.4549H61.2642V67.1231H61.6212ZM65.1233 67.1231V68.6015L65.1079 68.9881L65.1009 69.1097L66.3784 67.1231H66.8243V69.4549H66.4904V68.0292L66.4974 67.7481L66.5079 67.4718L65.2325 69.4542H64.7873V67.1231H65.1233ZM68.428 69.4549H68.0108L68.6891 68.4693C68.5071 68.4299 68.3671 68.3533 68.2691 68.2401C68.1705 68.1183 68.1192 67.9647 68.1249 67.8078C68.1249 67.5955 68.197 67.4282 68.3419 67.3059C68.4868 67.1843 68.6898 67.1231 68.9495 67.1231H70.0002V69.4549H69.6432V68.5227H69.0461L68.428 69.4549ZM68.4735 67.812C68.4735 68.082 68.6716 68.2162 69.0678 68.2162H69.6425V67.4289H68.9943C68.6471 67.4289 68.4735 67.5568 68.4735 67.812Z" fill="#838383"/>
</g>
<defs>
<clipPath id="clip0_149_272">
<rect width="70" height="71" fill="white"/>
</clipPath>
</defs>
</svg>
