<svg width="81" height="56" fill="none" xmlns="http://www.w3.org/2000/svg"><path d="M24.985 5.534h24.993a1.189 1.189 0 000-2.378H24.985a1.19 1.19 0 000 2.378zM2.63 17.16h24.993a1.189 1.189 0 100-2.377H2.631a1.189 1.189 0 100 2.378zM9.34 29.395c0 .657.532 1.19 1.189 1.19h24.993a1.19 1.19 0 000-2.379H10.529c-.657 0-1.19.532-1.19 1.189zM23.645 43.215H1.189a1.189 1.189 0 100 2.377h22.456a1.19 1.19 0 100-2.377zM64.05 12.99a6.495 6.495 0 100-12.99 6.495 6.495 0 000 12.99z" fill="#004298"/><path d="M74.731 11.12c-3.73 5.223-8.723 5.828-14.097 2.638-.366-.217-1.989-1.111-2.348-1.324-8.645-5.132-17.28-3.12-23.07 4.99-2.46 3.448 3.23 6.718 5.663 3.309 2.992-4.19 6.797-5.402 10.958-4.075-2.13 3.698-3.994 7.373-6.622 12.595-2.629 5.222-8.433 9.392-14.01 6.13-4.024-2.351-7.653 3.43-3.641 5.775 7.614 4.45 16.541 1.717 21.1-4.067.157.084.324.16.508.224 3.723 1.298 8.603 4.751 10.09 5.975 1.487 1.224 4.041 7.46 5.558 10.592 1.84 3.802 7.783 1.033 5.936-2.785-1.72-3.554-4.605-10.648-6.856-12.443-1.806-1.44-5.312-4.119-8.285-5.639a260.124 260.124 0 016.31-11.539c7.03 2.154 13.71-.383 18.468-7.048 2.463-3.449-3.227-6.718-5.662-3.309z" fill="#004298"/></svg>