<svg width="32" height="32" viewBox="0 0 32 32" fill="none" xmlns="http://www.w3.org/2000/svg">
<path d="M22.1384 14.7308C22.9505 13.3469 23.3012 11.7405 23.1398 10.1441C22.9011 7.76545 21.5731 5.66279 19.4024 4.22412L17.9291 6.44545C19.4211 7.43479 20.3291 8.84412 20.4864 10.4108C20.559 11.1389 20.4683 11.8741 20.2211 12.5628C19.9738 13.2515 19.5762 13.8764 19.0571 14.3921L17.4678 15.9815L19.6251 16.6148C25.2678 18.2681 25.3331 23.9428 25.3331 24.0001H27.9998C27.9998 21.6148 26.7251 16.9535 22.1384 14.7308Z" fill="#EE6908"/>
<path d="M12.667 16.0002C15.6083 16.0002 18.0003 13.6082 18.0003 10.6668C18.0003 7.7255 15.6083 5.3335 12.667 5.3335C9.72566 5.3335 7.33366 7.7255 7.33366 10.6668C7.33366 13.6082 9.72566 16.0002 12.667 16.0002ZM12.667 8.00016C14.1377 8.00016 15.3337 9.19616 15.3337 10.6668C15.3337 12.1375 14.1377 13.3335 12.667 13.3335C11.1963 13.3335 10.0003 12.1375 10.0003 10.6668C10.0003 9.19616 11.1963 8.00016 12.667 8.00016ZM14.667 17.3335H10.667C6.25499 17.3335 2.66699 20.9215 2.66699 25.3335V26.6668H5.33366V25.3335C5.33366 22.3922 7.72566 20.0002 10.667 20.0002H14.667C17.6083 20.0002 20.0003 22.3922 20.0003 25.3335V26.6668H22.667V25.3335C22.667 20.9215 19.079 17.3335 14.667 17.3335Z" fill="#EE6908"/>
</svg>
