<svg width="81" height="81" fill="none" xmlns="http://www.w3.org/2000/svg"><g clip-path="url(#clip0)" fill="#004298"><path d="M13.46 71.972a1.593 1.593 0 00-1.12-.464c-.415 0-.823.17-1.118.464a1.594 1.594 0 00-.463 1.118c0 .416.169.824.463 1.118.295.295.703.464 1.119.464.416 0 .824-.17 1.118-.464.294-.294.464-.702.464-1.118 0-.416-.17-.824-.464-1.118zM74.28 28.941a1.59 1.59 0 00-1.119-.463c-.416 0-.824.169-1.118.463a1.595 1.595 0 00-.464 1.119c0 .416.17.824.464 1.118.294.294.702.464 1.118.464a1.589 1.589 0 001.584-1.582c0-.416-.17-.824-.465-1.119z"/><path d="M80.536.463A1.583 1.583 0 0079.416 0L40.5.002c-.874 0-1.582.708-1.582 1.582v4.524l-14.996 4.018a1.582 1.582 0 00-1.119 1.938l7.772 29.005-6.723 6.724a4.744 4.744 0 00-3.918-2.072H4.747A4.751 4.751 0 000 50.468v25.787A4.751 4.751 0 004.747 81h15.187a4.754 4.754 0 004.606-3.604l1.881 1.64A7.97 7.97 0 0031.661 81h47.756c.873 0 1.582-.708 1.582-1.582V1.582c0-.42-.167-.822-.463-1.119zm-59.02 75.791c0 .872-.71 1.582-1.582 1.582H4.747c-.873 0-1.582-.71-1.582-1.582V50.468c0-.873.71-1.582 1.582-1.582h6.011V67.11a1.582 1.582 0 003.164 0V48.886h6.012c.872 0 1.582.71 1.582 1.582v25.786zm4.753-63.48l12.649-3.39v5.862l-1.06.284a1.582 1.582 0 00-1.12 1.938 4.264 4.264 0 01-3.011 5.217 1.582 1.582 0 00-1.118 1.94l6.166 22.835H35.6l-1.636-6.401a1.58 1.58 0 00-.265-.555l-7.43-27.73zM38.918 22.5v13.35l-2.886-10.685a7.412 7.412 0 002.886-2.665zm22.728 55.335H31.66a4.808 4.808 0 01-3.16-1.184l-3.82-3.332V51.44l6.907-6.908 1.252 4.902c.18.7.81 1.19 1.533 1.19l31.103.002c1.222 0 2.215.993 2.215 2.215a2.217 2.217 0 01-2.215 2.214H49.538a1.582 1.582 0 000 3.164h20.89c1.22 0 2.214.994 2.214 2.215a2.217 2.217 0 01-2.215 2.215H49.538a1.582 1.582 0 000 3.164h17.504c1.221 0 2.215.994 2.215 2.215a2.217 2.217 0 01-2.215 2.215H49.538a1.582 1.582 0 000 3.164h12.108c1.221 0 2.215.993 2.215 2.215 0 1.22-.994 2.214-2.215 2.214zm16.189 0h-11.29a5.346 5.346 0 000-4.43h.497a5.385 5.385 0 005.379-5.379c0-.865-.207-1.682-.571-2.407a5.387 5.387 0 003.956-5.186 5.35 5.35 0 00-1.062-3.204V37.178a1.582 1.582 0 00-3.164 0V55.18a5.379 5.379 0 00-1.153-.126h-.052a5.346 5.346 0 00.479-2.215 5.385 5.385 0 00-5.379-5.378h-2.543c2.7-1.158 4.597-3.842 4.597-6.962 0-4.175-3.396-7.571-7.571-7.571s-7.571 3.396-7.571 7.571c0 3.12 1.896 5.804 4.597 6.962h-8.648V17.38a7.447 7.447 0 005.672-5.672h11.9a7.447 7.447 0 005.672 5.672v4.918a1.582 1.582 0 003.164 0v-6.33c0-.874-.709-1.583-1.582-1.583a4.264 4.264 0 01-4.26-4.26c0-.873-.708-1.581-1.582-1.581H52.596c-.874 0-1.583.708-1.583 1.582 0 2.348-1.91 4.26-4.259 4.26-.874 0-1.582.708-1.582 1.581v31.494h-3.09V3.166l35.753-.002v74.672zM59.958 44.907a4.412 4.412 0 01-4.407-4.407 4.412 4.412 0 014.407-4.407 4.412 4.412 0 014.407 4.407 4.412 4.412 0 01-4.407 4.407z"/></g><defs><clipPath id="clip0"><path fill="#fff" d="M0 0h81v81H0z"/></clipPath></defs></svg>