<svg width="24" height="24" viewBox="0 0 24 24" fill="none" xmlns="http://www.w3.org/2000/svg">
<path d="M21.0469 9.81246H20.4816V7.09858C20.481 6.57787 20.2738 6.07864 19.9056 5.71044C19.5374 5.34224 19.0382 5.13512 18.5175 5.13452H4.58906C4.06834 5.13512 3.56912 5.34224 3.20092 5.71044C2.83271 6.07864 2.6256 6.57787 2.625 7.09858V16.9015C2.6256 17.4222 2.83271 17.9214 3.20092 18.2896C3.56912 18.6578 4.06834 18.8649 4.58906 18.8655H18.5175C19.0382 18.8649 19.5374 18.6578 19.9056 18.2896C20.2738 17.9214 20.481 17.4222 20.4816 16.9015V14.1876H21.0469C21.1339 14.1875 21.2173 14.1529 21.2788 14.0914C21.3404 14.0299 21.375 13.9465 21.375 13.8595V10.1406C21.375 10.0536 21.3404 9.97014 21.2788 9.90862C21.2173 9.84709 21.1339 9.81251 21.0469 9.81246ZM19.8253 16.9015C19.8249 17.2482 19.687 17.5806 19.4418 17.8258C19.1966 18.071 18.8642 18.2089 18.5175 18.2093H4.58906C4.24233 18.2089 3.90991 18.071 3.66474 17.8258C3.41956 17.5806 3.28165 17.2482 3.28125 16.9015V7.09858C3.28165 6.75185 3.41956 6.41944 3.66474 6.17426C3.90991 5.92908 4.24233 5.79117 4.58906 5.79077H18.5175C18.8069 5.79132 19.088 5.88777 19.3168 6.06502C19.5456 6.24228 19.7092 6.49035 19.782 6.77046H5.25C5.16298 6.77046 5.07952 6.80503 5.01798 6.86656C4.95645 6.9281 4.92188 7.01156 4.92188 7.09858C4.92188 7.18561 4.95645 7.26907 5.01798 7.3306C5.07952 7.39214 5.16298 7.42671 5.25 7.42671H19.8253V9.81246H16.9296C16.3494 9.81246 15.793 10.0429 15.3827 10.4532C14.9725 10.8634 14.742 11.4198 14.742 12C14.742 12.5802 14.9725 13.1366 15.3827 13.5469C15.793 13.9571 16.3494 14.1876 16.9296 14.1876H19.8253V16.9015ZM20.7188 13.5313H16.9296C16.5234 13.5313 16.1339 13.37 15.8468 13.0828C15.5596 12.7956 15.3983 12.4062 15.3983 12C15.3983 11.5939 15.5596 11.2044 15.8468 10.9172C16.1339 10.63 16.5234 10.4687 16.9296 10.4687H20.7188V13.5313Z" fill="#004298"/>
<path d="M16.2099 12.0001C16.2099 12.1639 16.2585 12.324 16.3495 12.4602C16.4405 12.5964 16.5699 12.7025 16.7212 12.7652C16.8725 12.8279 17.039 12.8443 17.1997 12.8123C17.3603 12.7804 17.5079 12.7015 17.6237 12.5857C17.7396 12.4699 17.8184 12.3223 17.8504 12.1616C17.8823 12.001 17.8659 11.8345 17.8033 11.6831C17.7406 11.5318 17.6344 11.4025 17.4982 11.3115C17.362 11.2204 17.2019 11.1719 17.0381 11.1719C16.8185 11.1721 16.608 11.2595 16.4528 11.4147C16.2975 11.57 16.2102 11.7805 16.2099 12.0001Z" fill="#004298"/>
</svg>
